<svg width="24" height="24" viewBox="0 0 24 24" fill="none" xmlns="http://www.w3.org/2000/svg">
<path d="M16.1552 5.10048C14.9008 4.44548 13.4985 4 11.9996 4C9.35584 4 7.01305 5.38568 5.25133 6.86265C3.47252 8.35393 2.15636 10.0471 1.54823 10.893C1.06986 11.5584 1.06986 12.4416 1.54823 13.107C2.08534 13.8541 3.17475 15.2621 4.64741 16.6083L7.36843 13.8873C7.1309 13.3049 7 12.6677 7 12C7 9.23858 9.23858 7 12 7C12.6677 7 13.3049 7.1309 13.8873 7.36843L16.1552 5.10048Z" fill="#0667FD"/>
<path fill-rule="evenodd" clip-rule="evenodd" d="M14.163 9.92115L14.1638 9.922L15.5782 8.50762L15.5773 8.50677L17.893 6.19111L17.894 6.19182L20.7929 3.29289C21.1834 2.90237 21.8166 2.90237 22.2071 3.29289C22.5976 3.68342 22.5976 4.31658 22.2071 4.70711L19.4407 7.47356C20.8682 8.79461 21.9246 10.1611 22.4509 10.893C22.9292 11.5584 22.9292 12.4416 22.4509 13.107C21.8427 13.9529 20.5266 15.6461 18.7478 17.1374C16.9861 18.6143 14.6433 20 11.9996 20C10.5453 20 9.18212 19.5807 7.95662 18.9576L6.20711 20.7071C5.81658 21.0976 5.18342 21.0976 4.79289 20.7071C4.40237 20.3166 4.40237 19.6834 4.79289 19.2929L6.20499 17.8808L6.20402 17.8801L8.50677 15.5773L8.50762 15.5782L9.922 14.1638L9.92115 14.163L14.163 9.92115ZM16.6795 10.2347L14.9988 11.9154C14.9996 11.9435 15 11.9717 15 12C15 13.6569 13.6569 15 12 15C11.9717 15 11.9435 14.9996 11.9154 14.9988L10.2347 16.6795C10.7837 16.8866 11.3786 17 12 17C14.7614 17 17 14.7614 17 12C17 11.3786 16.8866 10.7837 16.6795 10.2347Z" fill="#0667FD"/>
<path d="M12.2458 9.00992C12.1647 9.00335 12.0827 9 12 9C10.3431 9 9 10.3431 9 12C9 12.0827 9.00335 12.1647 9.00992 12.2458L12.2458 9.00992Z" fill="#0667FD"/>
</svg>
