<svg width="32" height="32" viewBox="0 0 32 32" fill="none" xmlns="http://www.w3.org/2000/svg">
<path d="M21.1666 4.99984C22.7125 4.99984 24.1781 5.61234 25.2864 6.71338C26.3948 7.81442 27 9.28734 27 10.8332V22.4998C27 24.0457 26.3875 25.5113 25.2864 26.6196C24.1854 27.728 22.7125 28.3332 21.1666 28.3332H9.49998C7.95415 28.3332 6.48852 27.7207 5.38019 26.6196C4.27185 25.5186 3.66665 24.0457 3.66665 22.4998V10.8332C3.66665 9.28734 4.27915 7.82171 5.38019 6.71338C6.48123 5.60505 7.95415 4.99984 9.49998 4.99984H21.1666ZM21.1666 2.6665H9.49998C5.00831 2.6665 1.33331 6.3415 1.33331 10.8332V22.4998C1.33331 26.9915 5.00831 30.6665 9.49998 30.6665H21.1666C25.6583 30.6665 29.3333 26.9915 29.3333 22.4998V10.8332C29.3333 6.3415 25.6583 2.6665 21.1666 2.6665Z" fill="white"/>
<path d="M22.2857 11.4286C21.3357 11.4286 20.5714 10.6643 20.5714 9.71429C20.5714 8.76429 21.3357 8 22.2857 8C23.2286 8 24 8.76429 24 9.71429C24 10.6643 23.2286 11.4286 22.2857 11.4286ZM14.8571 12.5714C17.3786 12.5714 19.4286 14.6214 19.4286 17.1429C19.4286 19.6643 17.3786 21.7143 14.8571 21.7143C12.3357 21.7143 10.2857 19.6643 10.2857 17.1429C10.2857 14.6214 12.3357 12.5714 14.8571 12.5714ZM14.8571 10.2857C11.0714 10.2857 8 13.3571 8 17.1429C8 20.9286 11.0714 24 14.8571 24C18.6429 24 21.7143 20.9286 21.7143 17.1429C21.7143 13.3571 18.6429 10.2857 14.8571 10.2857Z" fill="white"/>
</svg>
