<svg width="32" height="32" viewBox="0 0 32 32" fill="none" xmlns="http://www.w3.org/2000/svg">
<path fill-rule="evenodd" clip-rule="evenodd" d="M21.7755 18.5412C21.4585 18.3825 19.9002 17.6158 19.6096 17.5099C19.3191 17.4041 19.1078 17.3513 18.8965 17.6686C18.6852 17.9858 18.0777 18.6998 17.8928 18.9114C17.708 19.1229 17.523 19.1494 17.2061 18.9907C16.8891 18.8321 15.8678 18.4974 14.6571 17.4175C13.7149 16.577 13.0787 15.5391 12.8939 15.2217C12.7089 14.9044 12.8741 14.7329 13.0328 14.5748C13.1754 14.4328 13.3498 14.2046 13.5083 14.0195C13.6667 13.8344 13.7196 13.7022 13.8252 13.4908C13.9309 13.2791 13.8781 13.0941 13.7988 12.9355C13.7196 12.7768 13.0857 11.2166 12.8215 10.5819C12.5642 9.96388 12.3029 10.0476 12.1084 10.0378C11.9237 10.0286 11.7121 10.0267 11.5009 10.0267C11.2896 10.0267 10.9462 10.106 10.6556 10.4232C10.3651 10.7406 9.54624 11.5075 9.54624 13.0675C9.54624 14.6278 10.682 16.1349 10.8405 16.3464C10.999 16.5581 13.0755 19.7596 16.2553 21.1325C17.0115 21.4592 17.6019 21.6541 18.0622 21.8002C18.8215 22.0415 19.5124 22.0074 20.0586 21.9258C20.6676 21.8349 21.934 21.1591 22.1981 20.4187C22.4622 19.6782 22.4622 19.0436 22.3829 18.9114C22.3037 18.7792 22.0924 18.6998 21.7755 18.5412M15.9921 26.4379H15.9878C14.0958 26.4371 12.2402 25.9288 10.6213 24.9682L10.2363 24.7396L6.24578 25.7865L7.3109 21.8957L7.06027 21.4967C6.00482 19.818 5.44735 17.8779 5.44817 15.8856C5.4505 10.0723 10.1804 5.3427 15.9962 5.3427C18.8125 5.34371 21.4597 6.44185 23.4505 8.43486C25.4412 10.4277 26.5368 13.0768 26.5357 15.8941C26.5333 21.7079 21.8035 26.4379 15.9921 26.4379ZM24.9655 6.92044C22.5705 4.52265 19.3855 3.20156 15.992 3.2002C8.99986 3.2002 3.30913 8.89055 3.3063 15.8848C3.30539 18.1206 3.8895 20.3028 4.9996 22.2267L3.20001 28.8002L9.92474 27.0362C11.7777 28.0468 13.8638 28.5795 15.9869 28.5802H15.9921C22.9835 28.5802 28.6747 22.8893 28.6776 15.8949C28.6788 12.5054 27.3605 9.31823 24.9655 6.92049" fill="white"/>
</svg>
