<svg className="check-icon" width="24" height="24" viewBox="0 0 24 24" fill="none" xmlns="http://www.w3.org/2000/svg">
  <path className="rounded-bg"
    d="M12 0C8.81744 -1.18627e-05 5.76518 1.26426 3.51474 3.51469C1.26429 5.76511 1.18628e-05 8.81735 0 12C-1.18627e-05 15.1825 1.26425 18.2348 3.51468 20.4852C5.76511 22.7357 8.81735 24 12 24H12C15.1826 24 18.2349 22.7357 20.4853 20.4853C22.7358 18.2348 24 15.1826 24 12C24 8.8174 22.7358 5.76515 20.4853 3.51472C18.2349 1.26428 15.1826 0 12 0Z"
    fill="#0667FD" />
  <path className="check"
    d="M10.8614 16.9837C10.5455 16.9842 10.238 16.882 9.98526 16.6925L9.96961 16.6807L6.6696 14.1563C6.51667 14.0392 6.3883 13.8931 6.29185 13.7263C6.19541 13.5596 6.13278 13.3754 6.10752 13.1845C6.08225 12.9935 6.09486 12.7994 6.14462 12.6133C6.19437 12.4272 6.2803 12.2528 6.39751 12.0999C6.51471 11.947 6.6609 11.8187 6.82769 11.7223C6.99449 11.626 7.17862 11.5634 7.3696 11.5382C7.56058 11.513 7.75467 11.5257 7.94075 11.5755C8.12683 11.6254 8.30126 11.7114 8.45408 11.8287L10.5916 13.4678L15.6425 6.87822C15.7597 6.72544 15.9057 6.59723 16.0724 6.50091C16.2391 6.40458 16.4231 6.34203 16.6139 6.31682C16.8048 6.29161 16.9987 6.30424 17.1847 6.35399C17.3707 6.40373 17.545 6.48962 17.6978 6.60675L17.6982 6.60707L17.6668 6.65059L17.6991 6.60707C18.0073 6.84395 18.2089 7.19343 18.2597 7.57882C18.3106 7.9642 18.2065 8.35402 17.9702 8.66271L12.0292 16.41C11.8917 16.5885 11.715 16.733 11.5127 16.8322C11.3104 16.9313 11.088 16.9826 10.8627 16.9819L10.8614 16.9837Z"
    fill="white" />
</svg>