<svg width="25" height="24" viewBox="0 0 25 24" fill="none" xmlns="http://www.w3.org/2000/svg">
<path fill-rule="evenodd" clip-rule="evenodd" d="M12.4996 4C9.85584 4 7.51305 5.38568 5.75133 6.86265C3.97252 8.35393 2.65636 10.0471 2.04823 10.893C1.56986 11.5584 1.56986 12.4416 2.04823 13.107C2.65636 13.9529 3.97252 15.6461 5.75133 17.1374C7.51305 18.6143 9.85584 20 12.4996 20C15.1433 20 17.4861 18.6143 19.2478 17.1374C21.0266 15.6461 22.3427 13.9529 22.9509 13.107C23.4292 12.4416 23.4292 11.5584 22.9509 10.893C22.3427 10.0471 21.0266 8.35393 19.2478 6.86264C17.4861 5.38568 15.1433 4 12.4996 4ZM12.5 17C15.2614 17 17.5 14.7614 17.5 12C17.5 9.23858 15.2614 7 12.5 7C9.73858 7 7.5 9.23858 7.5 12C7.5 14.7614 9.73858 17 12.5 17Z" fill="#0667FD"/>
<path d="M15.5 12C15.5 13.6569 14.1569 15 12.5 15C10.8431 15 9.5 13.6569 9.5 12C9.5 10.3431 10.8431 9 12.5 9C14.1569 9 15.5 10.3431 15.5 12Z" fill="#0667FD"/>
</svg>
