<svg width="32" height="32" viewBox="0 0 32 32" fill="none" xmlns="http://www.w3.org/2000/svg">
<path fill-rule="evenodd" clip-rule="evenodd" d="M29.3823 29.3332H23.8465V20.6713C23.8465 18.6056 23.8115 15.9485 20.9701 15.9485C18.0902 15.9485 17.6505 18.1997 17.6505 20.5232V29.3332H12.1205V11.5208H17.4277V13.9563H17.5035C18.2419 12.5554 20.0475 11.0787 22.7408 11.0787C28.3466 11.0787 29.3823 14.7669 29.3823 19.5644V29.3332ZM5.879 9.08764C4.10022 9.08764 2.66669 7.64945 2.66669 5.87649C2.66669 4.1047 4.10022 2.6665 5.879 2.6665C7.64963 2.6665 9.08782 4.1047 9.08782 5.87649C9.08782 7.64945 7.64963 9.08764 5.879 9.08764ZM8.64808 29.3332H3.10643V11.5208H8.64808V29.3332Z" fill="white"/>
</svg>
