<svg width="64" height="64" viewBox="0 0 64 64" fill="none" xmlns="http://www.w3.org/2000/svg">
<path d="M2.97164 28.8425C2.58795 28.9606 2.17937 28.9773 1.78705 28.8908C1.39473 28.8043 1.03253 28.6177 0.736947 28.3498C0.44136 28.082 0.222822 27.7423 0.103345 27.365C-0.0161315 26.9877 -0.0323272 26.5861 0.0563911 26.2007C1.38753 20.7581 6.44914 7.44832 24.8888 1.85023C32.8762 -0.574668 40.5361 -0.616065 47.6466 1.72627C53.4961 3.64528 57.3793 6.64827 59.2368 8.09972C59.7088 8.46667 60.0131 9.00285 60.0828 9.59029C60.1525 10.1777 59.9819 10.7683 59.6085 11.2322C59.6039 11.2379 59.5992 11.2436 59.5945 11.2493C59.2111 11.7146 58.657 12.0131 58.0517 12.0807C57.4464 12.1482 56.8383 11.9793 56.3585 11.6103C52.9932 9.00434 42.7805 1.08743 26.2285 6.11245C10.0665 11.0191 5.67627 22.496 4.53755 27.1915C4.45108 27.5794 4.26011 27.9373 3.98462 28.2277C3.70914 28.5182 3.35928 28.7305 2.97165 28.8425L2.97164 28.8425Z" fill="white"/>
<path d="M53.2304 59.6693C53.0473 59.7275 52.8573 59.7626 52.6652 59.7738C38.2595 60.5363 29.0941 48.7746 28.7178 48.2842L28.648 48.171C28.4184 47.8209 22.8726 39.5284 25.314 32.9426C26.4354 29.9318 28.9155 27.8185 32.7064 26.6676C36.2321 25.5972 39.1171 25.9138 41.5728 27.6371C43.5863 29.0412 44.8767 31.1351 46.1275 33.157C48.7288 37.3554 50.323 39.4914 55.2674 38.259C57.4384 37.7175 58.4521 36.0493 58.9152 34.7499C60.162 31.214 59.057 26.3934 56.1334 22.7464C52.3563 18.0149 41.7859 10.1562 28.744 14.1156C23.1747 15.8064 18.6168 19.1384 15.5644 23.7263C13.0358 27.5338 11.5658 32.2627 11.5336 36.6728C11.4828 44.884 18.3303 55.6868 18.3953 55.7846C18.553 56.0325 18.6594 56.3084 18.7086 56.5967C18.7577 56.885 18.7486 57.1799 18.6818 57.4647C18.615 57.7496 18.4917 58.0187 18.3191 58.2567C18.1464 58.4947 17.9277 58.6969 17.6756 58.8519C17.6686 58.8562 17.6615 58.8604 17.6545 58.8647C17.1378 59.1813 16.5151 59.2856 15.9209 59.1549C15.3267 59.0242 14.8086 58.6691 14.4785 58.1661C14.1695 57.6722 6.85777 46.1538 6.91667 36.6636C6.99868 26.3771 13.3591 14.1006 27.3995 9.83804C33.8892 7.86782 40.7093 8.19897 47.1274 10.7851C52.1019 12.8018 56.7057 16.1402 59.7496 19.9523C63.6373 24.8181 65.007 31.1874 63.2371 36.1585C62.0573 39.4726 59.6145 41.7593 56.3683 42.5769C47.9076 44.692 44.5931 39.3666 42.1759 35.4819C39.6936 31.4994 38.3206 29.6321 34.0305 30.9345C31.6749 31.6497 30.2236 32.7957 29.6133 34.4421C28.7827 36.6928 29.5699 39.5777 30.3765 41.6001C30.3848 41.6213 30.3932 41.6424 30.4016 41.6634C31.4356 44.234 33.0494 46.5407 35.1214 48.4099C38.4406 51.4222 44.6025 55.7168 52.456 55.3027C53.0564 55.266 53.647 55.4652 54.098 55.8566C54.5489 56.2479 54.8231 56.7992 54.8604 57.3893C54.8609 57.3964 54.8613 57.4035 54.8617 57.4106C54.8801 57.911 54.7303 58.4033 54.4355 58.8116C54.1406 59.2199 53.7171 59.5213 53.2304 59.6693L53.2304 59.6693Z" fill="white"/>
<path d="M35.7617 63.8979C35.4614 63.9892 35.1454 64.0197 34.8328 63.9876C34.5201 63.9555 34.2174 63.8614 33.9428 63.7111C26.8377 59.7548 21.8499 54.4336 18.2582 46.9755L18.2437 46.9295C15.98 41.9568 14.6174 34.3594 17.6232 27.9382C19.8423 23.2002 24.0076 19.8698 29.9826 18.0559C37.0495 15.9104 43.6297 17.49 49.0303 22.602C51.4864 24.9613 53.4837 27.7414 54.9241 30.8056C55.1537 31.3569 55.1533 31.9749 54.9229 32.5259C54.6925 33.0769 54.2506 33.5166 53.6929 33.7499C53.1352 33.9832 52.5064 33.9914 51.9426 33.7727C51.3788 33.5539 50.9253 33.1259 50.6802 32.5811C49.4606 30.0236 47.7767 27.7063 45.711 25.7426C41.5483 21.8504 36.7092 20.6995 31.3115 22.3382C26.647 23.7543 23.435 26.2577 21.7908 29.78C19.4197 34.8497 20.6405 41.1802 22.4119 45.0762C25.5789 51.6724 29.9718 56.3513 36.2253 59.8271C36.4836 59.9703 36.7107 60.1621 36.8936 60.3915C37.0765 60.621 37.2116 60.8835 37.2913 61.1643C37.3709 61.4451 37.3935 61.7385 37.3578 62.0278C37.322 62.3171 37.2287 62.5967 37.083 62.8506C37.0772 62.8607 37.0713 62.8707 37.0654 62.8807C36.7741 63.3668 36.3095 63.7293 35.7617 63.8979V63.8979Z" fill="white"/>
<path d="M36.5099 41.602C38.1331 41.602 39.4489 40.3089 39.4489 38.7136C39.4489 37.1184 38.1331 35.8253 36.5099 35.8253C34.8868 35.8253 33.5709 37.1184 33.5709 38.7136C33.5709 40.3089 34.8868 41.602 36.5099 41.602Z" fill="white"/>
</svg>
