<svg width="538" height="526" viewBox="0 0 538 526" fill="none" xmlns="http://www.w3.org/2000/svg">
<rect x="125.493" y="83.584" width="410.742" height="283.293" rx="10" fill="white"/>
<path d="M532.077 83.584H131.24C129.714 83.5854 128.25 84.1925 127.17 85.2721C126.091 86.3517 125.484 87.8155 125.482 89.3423V360.96C125.484 362.487 126.091 363.951 127.17 365.03C128.25 366.11 129.714 366.717 131.24 366.718H532.077C532.909 366.719 533.732 366.538 534.488 366.189C535.244 365.84 535.915 365.331 536.455 364.698C536.501 364.648 536.543 364.595 536.581 364.539C536.924 364.119 537.203 363.649 537.406 363.146C537.696 362.454 537.844 361.71 537.842 360.96V89.3423C537.84 87.8145 537.232 86.3498 536.151 85.2701C535.07 84.1904 533.605 83.5839 532.077 83.584V83.584ZM536.198 360.96C536.198 361.764 535.962 362.549 535.517 363.219C535.123 363.808 534.587 364.289 533.959 364.619C533.377 364.919 532.732 365.075 532.077 365.074H131.24C130.15 365.073 129.104 364.639 128.333 363.868C127.562 363.097 127.128 362.051 127.126 360.96V89.3423C127.128 88.2516 127.562 87.206 128.333 86.4347C129.104 85.6635 130.15 85.2296 131.24 85.2283H532.077C533.169 85.2281 534.216 85.6613 534.988 86.4327C535.761 87.2041 536.196 88.2506 536.198 89.3423V360.96Z" fill="#3F3D56"/>
<path d="M537.016 106.663H126.303V108.309H537.016V106.663Z" fill="#3F3D56"/>
<path d="M140.295 100.869C143.023 100.869 145.234 98.6576 145.234 95.9301C145.234 93.2027 143.023 90.9917 140.295 90.9917C137.568 90.9917 135.357 93.2027 135.357 95.9301C135.357 98.6576 137.568 100.869 140.295 100.869Z" fill="#3F3D56"/>
<path d="M154.493 100.869C157.221 100.869 159.432 98.6576 159.432 95.9301C159.432 93.2027 157.221 90.9917 154.493 90.9917C151.766 90.9917 149.555 93.2027 149.555 95.9301C149.555 98.6576 151.766 100.869 154.493 100.869Z" fill="#3F3D56"/>
<path d="M168.691 100.869C171.419 100.869 173.63 98.6576 173.63 95.9301C173.63 93.2027 171.419 90.9917 168.691 90.9917C165.964 90.9917 163.753 93.2027 163.753 95.9301C163.753 98.6576 165.964 100.869 168.691 100.869Z" fill="#3F3D56"/>
<path d="M112.605 510.065H129.662L137.776 444.274L112.602 444.276L112.605 510.065Z" fill="#FFB8B8"/>
<path d="M162.557 525.901L108.95 525.904L108.949 505.192L141.844 505.19C147.337 505.19 152.606 507.372 156.49 511.256C160.374 515.14 162.557 520.408 162.557 525.901V525.901L162.557 525.901Z" fill="#2F2E41"/>
<path d="M48.6068 510.065H65.6637L73.7776 444.274L48.604 444.276L48.6068 510.065Z" fill="#FFB8B8"/>
<path d="M98.5586 525.901L44.952 525.904L44.9511 505.192L77.8461 505.19C83.3391 505.19 88.6073 507.372 92.4917 511.256C96.3761 515.14 98.5584 520.408 98.5587 525.901V525.901L98.5586 525.901Z" fill="#2F2E41"/>
<path d="M50.6897 314.121C52.5274 312.939 54.0835 311.368 55.2485 309.519C56.4135 307.671 57.159 305.59 57.4325 303.422C57.7061 301.254 57.501 299.052 56.8317 296.973C56.1624 294.893 55.0452 292.985 53.5588 291.383L64.7898 132.002L32.4387 135.14L31.5501 291.222C29.0252 293.897 27.5694 297.406 27.4585 301.083C27.3477 304.76 28.5896 308.35 30.9488 311.172C33.308 313.995 36.6207 315.854 40.2591 316.398C43.8975 316.941 47.6088 316.131 50.6898 314.121H50.6897Z" fill="#FFB8B8"/>
<path d="M113.114 476.929C111.583 476.924 110.107 476.361 108.962 475.345C107.818 474.329 107.083 472.931 106.896 471.412L96.9819 388.489C96.8424 387.321 96.285 386.243 95.4128 385.455C94.5406 384.666 93.4124 384.219 92.2367 384.198C91.0609 384.176 89.9171 384.581 89.0163 385.337C88.1156 386.093 87.5189 387.149 87.3364 388.311L74.847 467.707C74.6209 469.183 73.8721 470.529 72.7369 471.499C71.6018 472.47 70.1558 473.001 68.6624 472.995H48.4194C47.5932 472.995 46.7753 472.831 46.0126 472.513C45.2499 472.196 44.5577 471.73 43.9757 471.144C43.3937 470.558 42.9336 469.862 42.6217 469.097C42.3099 468.332 42.1525 467.512 42.1587 466.686L51.82 290.643C51.8236 289.145 52.3678 287.697 53.3527 286.568C54.3376 285.438 55.697 284.702 57.1812 284.494L132.301 273.589C133.194 273.46 134.103 273.525 134.969 273.78C135.834 274.035 136.634 274.473 137.313 275.066C137.993 275.659 138.537 276.391 138.908 277.213C139.279 278.035 139.467 278.928 139.461 279.83L138.151 469.817C138.14 471.418 137.515 472.954 136.406 474.109C135.297 475.264 133.787 475.95 132.188 476.026L113.411 476.921C113.311 476.927 113.212 476.929 113.114 476.929Z" fill="#2F2E41"/>
<path d="M74.1683 297.294C66.9427 297.266 59.7762 295.99 52.985 293.522C51.8338 293.098 50.8339 292.343 50.1114 291.351C49.389 290.36 48.9762 289.176 48.9253 287.95C48.2772 273.569 44.4859 199.544 33.4482 154.39C31.3028 145.532 31.8275 136.238 34.9561 127.678C38.0847 119.118 43.6773 111.676 51.0289 106.289C51.6226 105.863 52.2279 105.444 52.8447 105.033C59.2286 100.783 66.5936 98.2372 74.2391 97.6379C81.8846 97.0387 89.5563 98.4056 96.5243 101.609C103.723 104.83 109.977 109.839 114.693 116.16C119.408 122.481 122.428 129.904 123.464 137.722L141.464 271.354C141.579 272.19 141.524 273.04 141.301 273.853C141.079 274.667 140.693 275.427 140.168 276.087C139.655 276.742 139.013 277.286 138.283 277.686C137.553 278.086 136.749 278.334 135.92 278.414C129.683 279.036 116.748 281.453 100.192 290.651C92.2312 295.062 83.2692 297.349 74.1683 297.294V297.294Z" fill="#3F3D56"/>
<path d="M52.1628 186.523L22.5418 178.492C20.9403 178.056 19.5772 177.002 18.7515 175.562C17.9258 174.122 17.705 172.414 18.1376 170.811L28.5506 132.405C29.6659 128.291 32.2649 124.736 35.8463 122.425C39.4278 120.114 43.7381 119.21 47.9462 119.889C52.1542 120.568 55.962 122.78 58.6352 126.1C61.3084 129.42 62.6577 133.613 62.423 137.869L60.0525 180.826C60.0013 181.757 59.7425 182.665 59.2951 183.484C58.8478 184.302 58.2231 185.01 57.4669 185.557C56.7107 186.103 55.842 186.473 54.9243 186.64C54.0066 186.807 53.0631 186.767 52.1628 186.523V186.523Z" fill="#3F3D56"/>
<path d="M85.1364 83.464C104.009 83.464 119.307 68.1652 119.307 49.2931C119.307 30.421 104.009 15.1221 85.1364 15.1221C66.2643 15.1221 50.9655 30.421 50.9655 49.2931C50.9655 68.1652 66.2643 83.464 85.1364 83.464Z" fill="#FFB8B8"/>
<path d="M208.964 116.428C208.794 117.179 208.682 117.942 208.631 118.71L148.866 153.188L134.339 144.825L118.853 165.099L149.93 187.249L218.113 133.459C220.894 134.488 223.922 134.646 226.795 133.912C229.668 133.178 232.249 131.587 234.196 129.35C236.143 127.113 237.362 124.337 237.692 121.39C238.023 118.444 237.448 115.466 236.045 112.854C234.641 110.242 232.476 108.119 229.837 106.767C227.198 105.415 224.21 104.899 221.27 105.287C218.33 105.675 215.578 106.949 213.38 108.939C211.182 110.929 209.642 113.541 208.964 116.428V116.428Z" fill="#FFB8B8"/>
<path d="M143.913 154.852L118.169 171.559C116.775 172.461 115.081 172.774 113.458 172.428C111.834 172.082 110.414 171.107 109.509 169.716L87.8468 136.336C85.5263 132.761 84.6117 128.453 85.2795 124.243C85.9473 120.033 88.1501 116.219 91.4631 113.538C94.7762 110.856 98.9648 109.495 103.221 109.719C107.478 109.943 111.501 111.734 114.515 114.749L144.933 145.174C145.592 145.833 146.096 146.632 146.407 147.511C146.719 148.391 146.83 149.328 146.732 150.256C146.634 151.184 146.33 152.078 145.843 152.873C145.355 153.668 144.696 154.344 143.913 154.852Z" fill="#3F3D56"/>
<path d="M60.9555 76.3275C67.3303 83.118 79.169 79.4727 79.9996 70.1959C80.0648 69.4757 80.0601 68.7509 79.9856 68.0315C79.5567 63.9223 77.1827 60.1917 77.7513 55.8529C77.8801 54.7731 78.2824 53.7441 78.9202 52.8632C84 46.0609 95.9246 55.9057 100.719 49.7478C103.659 45.9718 100.203 40.0268 102.459 35.8065C105.436 30.2365 114.255 32.9842 119.786 29.9338C125.939 26.5398 125.571 17.099 121.52 11.3566C116.581 4.35351 107.92 0.616695 99.3666 0.0781346C90.8136 -0.460425 82.3195 1.85165 74.3345 4.9635C65.2619 8.49918 56.2651 13.3856 50.682 21.3631C43.8923 31.0647 43.2389 44.1075 46.6345 55.4516C48.7001 62.3524 55.7498 70.7823 60.9555 76.3275Z" fill="#2F2E41"/>
<path d="M196.169 526H1.39127C1.02228 526 0.668406 525.853 0.407492 525.593C0.146579 525.332 0 524.978 0 524.609C0 524.24 0.146579 523.886 0.407492 523.625C0.668406 523.364 1.02228 523.218 1.39127 523.218H196.169C196.538 523.218 196.892 523.364 197.153 523.625C197.414 523.886 197.56 524.24 197.56 524.609C197.56 524.978 197.414 525.332 197.153 525.593C196.892 525.853 196.538 526 196.169 526Z" fill="#3F3D56"/>
<path d="M253.65 213.788C252.621 214.105 251.524 214.15 250.472 213.918C249.419 213.686 248.448 213.185 247.655 212.466C246.862 211.748 246.276 210.836 245.955 209.824C245.635 208.812 245.591 207.735 245.829 206.701C249.4 192.1 262.979 156.394 312.447 141.376C333.875 134.871 354.424 134.76 373.499 141.043C389.192 146.192 399.609 154.248 404.592 158.141C405.859 159.126 406.675 160.564 406.862 162.14C407.049 163.716 406.591 165.301 405.589 166.545C405.577 166.56 405.565 166.576 405.552 166.591C404.523 167.839 403.037 168.64 401.413 168.821C399.789 169.002 398.158 168.549 396.871 167.559C387.843 160.568 360.445 139.33 316.041 152.81C272.683 165.973 260.906 196.762 257.851 209.359C257.619 210.4 257.106 211.36 256.367 212.139C255.628 212.918 254.69 213.488 253.65 213.788L253.65 213.788Z" fill="url(#paint0_linear_6_1072)"/>
<path d="M388.479 296.487C387.988 296.643 387.478 296.737 386.963 296.767C348.317 298.813 323.729 267.26 322.719 265.944L322.532 265.64C321.916 264.701 307.038 242.455 313.588 224.787C316.596 216.71 323.25 211.041 333.419 207.953C342.878 205.082 350.617 205.931 357.205 210.554C362.607 214.321 366.069 219.938 369.424 225.362C376.403 236.625 380.679 242.356 393.944 239.05C399.768 237.597 402.487 233.122 403.73 229.636C407.075 220.15 404.11 207.218 396.267 197.434C386.134 184.741 357.777 163.658 322.789 174.28C307.849 178.816 295.621 187.755 287.433 200.063C280.649 210.277 276.706 222.963 276.619 234.794C276.483 256.822 294.853 285.803 295.027 286.066C295.45 286.73 295.736 287.471 295.867 288.244C295.999 289.017 295.975 289.809 295.796 290.573C295.616 291.337 295.286 292.059 294.822 292.697C294.359 293.336 293.773 293.878 293.096 294.294C293.077 294.306 293.059 294.317 293.04 294.328C291.654 295.178 289.983 295.458 288.389 295.107C286.795 294.756 285.405 293.804 284.519 292.454C283.69 291.129 264.075 260.229 264.233 234.77C264.453 207.174 281.516 174.24 319.182 162.805C336.593 157.519 354.889 158.408 372.106 165.345C385.452 170.756 397.802 179.712 405.968 189.938C416.398 202.992 420.072 220.079 415.324 233.415C412.159 242.305 405.606 248.44 396.897 250.633C374.2 256.307 365.308 242.021 358.823 231.599C352.164 220.915 348.481 215.906 336.972 219.4C330.652 221.319 326.759 224.393 325.121 228.81C322.893 234.848 325.005 242.587 327.169 248.013C327.191 248.069 327.214 248.126 327.236 248.183C330.01 255.079 334.34 261.267 339.898 266.281C348.802 274.363 365.333 285.883 386.402 284.773C388.012 284.674 389.597 285.209 390.806 286.258C392.016 287.308 392.752 288.787 392.852 290.37C392.853 290.389 392.854 290.408 392.855 290.428C392.905 291.77 392.503 293.091 391.712 294.186C390.921 295.281 389.785 296.09 388.479 296.487L388.479 296.487Z" fill="url(#paint1_linear_6_1072)"/>
<path d="M341.616 307.831C340.81 308.076 339.962 308.158 339.124 308.072C338.285 307.986 337.473 307.733 336.736 307.33C317.675 296.716 304.294 282.441 294.659 262.433L294.62 262.31C288.547 248.97 284.892 228.588 292.956 211.362C298.909 198.651 310.083 189.717 326.112 184.851C345.07 179.095 362.723 183.333 377.211 197.047C383.8 203.376 389.158 210.834 393.023 219.054C393.639 220.533 393.637 222.191 393.019 223.669C392.401 225.147 391.216 226.327 389.72 226.953C388.223 227.579 386.537 227.601 385.024 227.014C383.512 226.427 382.295 225.279 381.637 223.817C378.366 216.957 373.848 210.74 368.307 205.472C357.139 195.03 344.158 191.943 329.677 196.339C317.164 200.138 308.547 206.854 304.136 216.303C297.775 229.903 301.05 246.886 305.802 257.338C314.298 275.034 326.083 287.586 342.859 296.91C343.552 297.294 344.161 297.809 344.652 298.424C345.143 299.04 345.505 299.744 345.719 300.498C345.933 301.251 345.993 302.038 345.897 302.814C345.801 303.59 345.551 304.34 345.16 305.021C345.145 305.048 345.129 305.075 345.113 305.102C344.332 306.406 343.085 307.379 341.616 307.831V307.831Z" fill="url(#paint2_linear_6_1072)"/>
<path d="M343.623 248.018C347.977 248.018 351.507 244.548 351.507 240.269C351.507 235.989 347.977 232.52 343.623 232.52C339.269 232.52 335.739 235.989 335.739 240.269C335.739 244.548 339.269 248.018 343.623 248.018Z" fill="url(#paint3_linear_6_1072)"/>
<defs>
<linearGradient id="paint0_linear_6_1072" x1="397.798" y1="142.883" x2="273.195" y2="221.085" gradientUnits="userSpaceOnUse">
<stop stop-color="#C596E0"/>
<stop offset="1" stop-color="#0366FE"/>
</linearGradient>
<linearGradient id="paint1_linear_6_1072" x1="408.722" y1="170.856" x2="260.553" y2="220.752" gradientUnits="userSpaceOnUse">
<stop stop-color="#C596E0"/>
<stop offset="1" stop-color="#0366FE"/>
</linearGradient>
<linearGradient id="paint2_linear_6_1072" x1="387.544" y1="192.831" x2="281.046" y2="219.756" gradientUnits="userSpaceOnUse">
<stop stop-color="#C596E0"/>
<stop offset="1" stop-color="#0366FE"/>
</linearGradient>
<linearGradient id="paint3_linear_6_1072" x1="350.617" y1="233.812" x2="335.098" y2="238.585" gradientUnits="userSpaceOnUse">
<stop stop-color="#C596E0"/>
<stop offset="1" stop-color="#0366FE"/>
</linearGradient>
</defs>
</svg>
