<svg width="516" height="388" viewBox="0 0 516 388" fill="none" xmlns="http://www.w3.org/2000/svg">
<g clip-path="url(#clip0_6_291)">
<path d="M106.748 315.637H516V0H106.748V315.637Z" fill="white"/>
<path d="M106.748 315.637H516V0H106.748V315.637ZM509.953 309.579H112.795V6.05806H509.953V309.579Z" fill="#E5E5E5"/>
<path d="M408.893 237.93H439.878C440.717 237.929 441.521 237.595 442.115 237C442.708 236.406 443.042 235.6 443.043 234.759V191.965C443.042 191.125 442.708 190.319 442.115 189.725C441.521 189.13 440.717 188.796 439.878 188.795H408.893C408.054 188.796 407.249 189.13 406.656 189.725C406.063 190.319 405.729 191.125 405.728 191.965V234.759C405.729 235.6 406.063 236.406 406.656 237C407.249 237.595 408.054 237.929 408.893 237.93V237.93Z" fill="#E6E6E6"/>
<path d="M352.387 237.93H383.372C384.211 237.929 385.016 237.595 385.609 237C386.202 236.406 386.536 235.6 386.537 234.759V151.376C386.536 150.535 386.202 149.729 385.609 149.135C385.016 148.54 384.211 148.206 383.372 148.205H352.387C351.548 148.206 350.744 148.54 350.15 149.135C349.557 149.729 349.223 150.535 349.222 151.376V234.759C349.223 235.6 349.557 236.406 350.15 237C350.744 237.595 351.548 237.929 352.387 237.93Z" fill="#E6E6E6"/>
<path d="M295.881 237.93H326.867C327.706 237.929 328.51 237.595 329.104 237C329.697 236.406 330.031 235.6 330.032 234.759V191.965C330.031 191.125 329.697 190.319 329.104 189.725C328.51 189.13 327.706 188.796 326.867 188.795H295.881C295.042 188.796 294.238 189.13 293.645 189.725C293.051 190.319 292.718 191.125 292.717 191.965V234.759C292.718 235.6 293.051 236.406 293.645 237C294.238 237.595 295.042 237.929 295.881 237.93V237.93Z" fill="#E6E6E6"/>
<path d="M239.376 237.93H270.361C271.181 237.948 271.975 237.639 272.568 237.072C273.161 236.504 273.506 235.725 273.526 234.903V135.21C273.506 134.388 273.161 133.609 272.568 133.041C271.975 132.474 271.181 132.165 270.361 132.183H239.376C238.556 132.165 237.763 132.474 237.169 133.041C236.576 133.609 236.232 134.388 236.211 135.21V234.903C236.232 235.725 236.576 236.504 237.169 237.072C237.763 237.639 238.556 237.948 239.376 237.93Z" fill="#E6E6E6"/>
<path d="M182.87 237.93H213.856C214.695 237.929 215.499 237.595 216.092 237C216.686 236.406 217.02 235.6 217.021 234.759V106.513C217.02 105.673 216.686 104.867 216.092 104.272C215.499 103.678 214.695 103.344 213.856 103.343H182.87C182.031 103.344 181.227 103.678 180.634 104.272C180.04 104.867 179.707 105.673 179.706 106.513V234.759C179.707 235.6 180.04 236.406 180.634 237C181.227 237.595 182.031 237.929 182.87 237.93Z" fill="#F2F2F2"/>
<path d="M424.385 175.977C420.852 175.977 417.988 173.108 417.988 169.568C417.988 166.029 420.852 163.159 424.385 163.159C427.918 163.159 430.782 166.029 430.782 169.568C430.782 173.108 427.918 175.977 424.385 175.977Z" fill="#3F3D56"/>
<path d="M367.88 134.319C364.347 134.319 361.483 131.45 361.483 127.91C361.483 124.371 364.347 121.501 367.88 121.501C371.413 121.501 374.276 124.371 374.276 127.91C374.276 131.45 371.413 134.319 367.88 134.319Z" fill="#3F3D56"/>
<path d="M311.374 175.977C307.841 175.977 304.977 173.108 304.977 169.568C304.977 166.029 307.841 163.159 311.374 163.159C314.907 163.159 317.771 166.029 317.771 169.568C317.771 173.108 314.907 175.977 311.374 175.977Z" fill="#3F3D56"/>
<path d="M254.869 114.024C251.336 114.024 248.472 111.155 248.472 107.615C248.472 104.076 251.336 101.206 254.869 101.206C258.401 101.206 261.265 104.076 261.265 107.615C261.265 111.155 258.401 114.024 254.869 114.024Z" fill="#3F3D56"/>
<path d="M198.363 90.5249C194.83 90.5249 191.966 87.6555 191.966 84.1159C191.966 80.5764 194.83 77.707 198.363 77.707C201.896 77.707 204.76 80.5764 204.76 84.1159C204.76 87.6555 201.896 90.5249 198.363 90.5249Z" fill="#3F3D56"/>
<path d="M311.239 171.004L367.88 128.5L423.746 170.423L425.024 168.713L367.88 125.83L311.509 168.132L255.492 106.715L255.267 106.624L198.762 83.8143L197.965 85.7962L254.245 108.515L311.239 171.004Z" fill="#3F3D56"/>
<path d="M119.321 377.534L128.946 377.534L133.525 340.34L119.319 340.34L119.321 377.534Z" fill="#FFB6B6"/>
<path d="M116.867 386.882L147.901 386.881V386.487C147.901 383.278 146.628 380.2 144.363 377.93C142.098 375.661 139.025 374.386 135.822 374.385H135.821L116.866 374.386L116.867 386.882Z" fill="#2F2E41"/>
<path d="M153.719 220.106L148.254 307.332L129.908 368.729L115.694 369.761L122.832 294.933L119.702 245.24C119.702 245.24 104.866 234.161 113.069 220.823L153.719 220.106Z" fill="#2F2E41"/>
<path d="M113.041 377.534L122.666 377.534L127.244 340.34L113.039 340.34L113.041 377.534Z" fill="#FFB6B6"/>
<path d="M110.586 386.882L141.621 386.881V386.487C141.621 383.278 140.348 380.2 138.082 377.93C135.817 375.661 132.745 374.386 129.541 374.385H129.54L110.586 374.386L110.586 386.882Z" fill="#2F2E41"/>
<path d="M147.438 220.106L141.974 307.332L123.627 368.729L109.413 369.761L116.551 294.933L113.421 245.24C113.421 245.24 98.5855 234.161 106.789 220.823L147.438 220.106Z" fill="#2F2E41"/>
<path d="M117.816 233.613C134.207 233.613 153.498 223.578 154.616 222.988L154.927 222.824L117.309 126.676L98.6789 117.858C97.2444 117.179 95.655 116.896 94.0748 117.038C92.4946 117.18 90.9809 117.742 89.6899 118.665C88.3988 119.589 87.3773 120.842 86.7306 122.293C86.084 123.745 85.8358 125.343 86.0115 126.923L93.4046 193.371L101.122 227.787L101.204 227.868C105.463 232.084 111.42 233.613 117.816 233.613Z" fill="#3F3D56"/>
<path d="M177.929 169.965C176.954 169.345 175.855 168.948 174.711 168.8C173.566 168.652 172.403 168.757 171.303 169.108C170.204 169.46 169.194 170.048 168.346 170.832C167.498 171.617 166.832 172.578 166.395 173.648L138.382 172.115L145.732 184.728L171.207 184.25C173.05 184.867 175.055 184.785 176.841 184.02C178.628 183.255 180.073 181.86 180.901 180.099C181.73 178.338 181.885 176.334 181.337 174.466C180.789 172.598 179.576 170.996 177.929 169.965V169.965Z" fill="#FFB6B6"/>
<path d="M122.647 189.71L150.72 188.992L150.358 170.387L137.083 166.154L115.309 135.557C114.219 134.025 112.833 132.727 111.234 131.741C109.634 130.755 107.854 130.1 105.997 129.815C104.141 129.53 102.246 129.621 100.426 130.082C98.605 130.544 96.895 131.366 95.3971 132.501C93.8991 133.636 92.6435 135.06 91.7044 136.69C90.7654 138.319 90.162 140.121 89.93 141.988C89.6979 143.855 89.8419 145.75 90.3534 147.56C90.8649 149.371 91.7335 151.06 92.9079 152.529L122.647 189.71Z" fill="#3F3D56"/>
<path d="M106.393 114.315C96.0911 114.315 87.7398 105.948 87.7398 95.6263C87.7398 85.3049 96.0911 76.9377 106.393 76.9377C116.695 76.9377 125.046 85.3049 125.046 95.6263C125.046 105.948 116.695 114.315 106.393 114.315Z" fill="#FFB6B6"/>
<path d="M129.992 80.0525C128.11 78.1186 125.663 76.8326 123.005 76.3793C120.415 75.8208 117.573 75.6478 115.5 74.0196C113.145 72.1397 112.108 68.5688 109.219 67.7744C107.963 67.5213 106.66 67.6248 105.459 68.0733C100.842 69.4684 96.7438 72.2061 93.6828 75.9388C92.9614 77.0085 92.0419 77.9296 90.9743 78.6524C90.3358 78.9233 89.7121 79.2278 89.1058 79.5648C88.4406 80.0907 87.9171 80.7748 87.5827 81.5548C85.4997 85.7678 85.0197 90.5967 86.2325 95.1386C86.9547 97.8208 88.258 100.306 89.0273 103.004C89.7967 105.702 93.3549 110.834 94.1871 109.56C95.0193 108.286 96.0869 107.098 96.5423 105.627C97.4306 102.734 96.6284 99.8225 98.8878 97.8129C100.285 96.5701 102.813 95.7364 103.763 97.3409C104.14 97.9623 104.116 98.7489 104.438 99.3938C105.074 100.652 106.911 100.904 108.128 100.18C109.301 99.3691 110.125 98.1445 110.436 96.751C112.266 90.553 115.382 86.6517 122 89.3023C124.465 90.2934 127.37 90.9619 129.741 89.263C132.866 87.0292 132.23 82.6009 129.992 80.0525Z" fill="#2F2E41"/>
<path d="M171.879 248.155H202.865C203.704 248.154 204.508 247.82 205.101 247.226C205.695 246.631 206.029 245.825 206.03 244.985V116.738C206.029 115.898 205.695 115.092 205.101 114.498C204.508 113.903 203.704 113.569 202.865 113.568H171.879C171.04 113.569 170.236 113.903 169.643 114.498C169.049 115.092 168.716 115.898 168.715 116.738V244.985C168.716 245.825 169.049 246.631 169.643 247.226C170.236 247.82 171.04 248.154 171.879 248.155V248.155Z" fill="#6C63FF"/>
<path d="M178.714 180.976C177.739 180.357 176.641 179.96 175.496 179.812C174.351 179.664 173.188 179.769 172.089 180.12C170.989 180.471 169.98 181.06 169.131 181.844C168.283 182.628 167.617 183.589 167.18 184.66L139.167 183.126L146.517 195.74L171.992 195.262C173.835 195.879 175.84 195.797 177.626 195.032C179.413 194.267 180.858 192.872 181.686 191.111C182.515 189.35 182.67 187.345 182.122 185.478C181.574 183.61 180.361 182.008 178.714 180.976H178.714Z" fill="#FFB6B6"/>
<path d="M123.432 200.721L151.505 200.004L151.143 181.399L137.868 177.166L116.094 146.569C115.004 145.037 113.618 143.739 112.019 142.753C110.419 141.767 108.639 141.112 106.782 140.827C104.926 140.542 103.031 140.633 101.211 141.094C99.3901 141.555 97.6801 142.378 96.1822 143.513C94.6842 144.648 93.4286 146.072 92.4895 147.702C91.5505 149.331 90.9471 151.133 90.7151 153C90.483 154.867 90.627 156.762 91.1385 158.572C91.65 160.383 92.5186 162.072 93.693 163.54L123.432 200.721Z" fill="#3F3D56"/>
</g>
<defs>
<clipPath id="clip0_6_291">
<rect width="516" height="388" fill="white" transform="matrix(-1 0 0 1 516 0)"/>
</clipPath>
</defs>
</svg>
