<svg width="598" height="670" viewBox="0 0 598 670" fill="none" xmlns="http://www.w3.org/2000/svg">
<path d="M25.937 669.622H316.063C322.94 669.614 329.532 666.879 334.395 662.017C339.257 657.154 341.992 650.561 342 643.685V222.937C341.992 216.06 339.257 209.468 334.395 204.605C329.532 199.743 322.94 197.008 316.063 197H25.937C19.0605 197.008 12.4678 199.743 7.60534 204.605C2.74289 209.468 0.00774924 216.06 -1.23672e-05 222.937V643.685C0.00774924 650.561 2.74289 657.154 7.60534 662.017C12.4678 666.879 19.0605 669.614 25.937 669.622V669.622Z" fill="#E6E6E6"/>
<path d="M25.4265 653.074H316.574C318.694 653.071 320.726 652.228 322.225 650.729C323.724 649.23 324.567 647.198 324.569 645.078V221.544C324.567 219.424 323.724 217.392 322.225 215.893C320.726 214.394 318.694 213.551 316.574 213.548H25.4265C23.3068 213.551 21.2745 214.394 19.7756 215.893C18.2767 217.392 17.4335 219.424 17.4311 221.544V645.078C17.4335 647.198 18.2767 649.23 19.7756 650.729C21.2745 652.228 23.3068 653.071 25.4265 653.074V653.074Z" fill="white"/>
<path d="M172.103 207.15C170.885 207.15 169.897 206.162 169.897 204.943C169.897 203.725 170.885 202.737 172.103 202.737C173.322 202.737 174.31 203.725 174.31 204.943C174.31 206.162 173.322 207.15 172.103 207.15Z" fill="white"/>
<path d="M53.6484 492.439H288.352C288.546 492.439 288.733 492.362 288.871 492.224C289.009 492.086 289.086 491.9 289.086 491.705V379.212C289.086 379.017 289.009 378.83 288.871 378.692C288.733 378.554 288.546 378.477 288.352 378.477C288.157 378.477 287.97 378.554 287.832 378.692C287.695 378.83 287.617 379.017 287.617 379.212V490.97H53.6484C53.4541 490.971 53.2679 491.049 53.1308 491.186C52.9936 491.324 52.9166 491.511 52.9166 491.705C52.9166 491.899 52.9936 492.086 53.1308 492.223C53.2679 492.361 53.4541 492.439 53.6484 492.439V492.439Z" fill="#3F3D56"/>
<path d="M238.206 484.36H259.553C260.131 484.359 260.685 484.129 261.094 483.72C261.503 483.312 261.733 482.758 261.733 482.18V452.752C261.733 452.174 261.503 451.62 261.094 451.211C260.685 450.803 260.131 450.573 259.553 450.572H238.206C237.628 450.573 237.074 450.803 236.665 451.211C236.256 451.62 236.026 452.174 236.025 452.752V482.18C236.026 482.758 236.256 483.312 236.665 483.72C237.074 484.129 237.628 484.359 238.206 484.36Z" fill="#6C63FF"/>
<path d="M199.276 484.36H220.624C221.202 484.359 221.756 484.129 222.165 483.72C222.573 483.312 222.803 482.758 222.804 482.179V424.841C222.803 424.263 222.573 423.709 222.165 423.3C221.756 422.891 221.202 422.661 220.624 422.661H199.276C198.698 422.661 198.144 422.891 197.735 423.3C197.327 423.709 197.097 424.263 197.096 424.841V482.179C197.097 482.758 197.327 483.312 197.735 483.72C198.144 484.129 198.698 484.359 199.276 484.36V484.36Z" fill="#6C63FF"/>
<path d="M160.347 484.36H181.694C182.272 484.359 182.827 484.129 183.235 483.72C183.644 483.312 183.874 482.758 183.875 482.18V452.752C183.874 452.174 183.644 451.62 183.235 451.211C182.827 450.803 182.272 450.573 181.694 450.572H160.347C159.769 450.573 159.215 450.803 158.806 451.211C158.397 451.62 158.168 452.174 158.167 452.752V482.18C158.168 482.758 158.397 483.312 158.806 483.72C159.215 484.129 159.769 484.359 160.347 484.36V484.36Z" fill="#6C63FF"/>
<path d="M121.418 484.36H142.765C143.33 484.372 143.877 484.16 144.285 483.77C144.694 483.379 144.931 482.843 144.946 482.278V413.724C144.931 413.159 144.694 412.623 144.285 412.233C143.877 411.843 143.33 411.631 142.765 411.643H121.418C120.853 411.631 120.306 411.843 119.898 412.233C119.489 412.623 119.252 413.159 119.238 413.724V482.278C119.252 482.843 119.489 483.379 119.898 483.77C120.306 484.16 120.853 484.372 121.418 484.36V484.36Z" fill="#6C63FF"/>
<path d="M82.4889 484.36H103.836C104.414 484.359 104.968 484.129 105.377 483.72C105.786 483.312 106.016 482.758 106.016 482.179V393.991C106.016 393.413 105.786 392.859 105.377 392.45C104.968 392.041 104.414 391.812 103.836 391.811H82.4889C81.9108 391.812 81.3567 392.041 80.9479 392.45C80.5391 392.859 80.3092 393.413 80.3085 393.991V482.179C80.3092 482.758 80.5391 483.312 80.9479 483.72C81.3567 484.129 81.9108 484.359 82.4889 484.36V484.36Z" fill="#6C63FF"/>
<path d="M248.879 441.758C246.445 441.758 244.472 439.785 244.472 437.351C244.472 434.917 246.445 432.944 248.879 432.944C251.313 432.944 253.286 434.917 253.286 437.351C253.286 439.785 251.313 441.758 248.879 441.758Z" fill="#3F3D56"/>
<path d="M209.95 413.112C207.516 413.112 205.543 411.139 205.543 408.705C205.543 406.271 207.516 404.298 209.95 404.298C212.384 404.298 214.357 406.271 214.357 408.705C214.357 411.139 212.384 413.112 209.95 413.112Z" fill="#3F3D56"/>
<path d="M171.021 441.758C168.587 441.758 166.614 439.785 166.614 437.351C166.614 434.917 168.587 432.944 171.021 432.944C173.455 432.944 175.428 434.917 175.428 437.351C175.428 439.785 173.455 441.758 171.021 441.758Z" fill="#3F3D56"/>
<path d="M132.092 399.156C129.658 399.156 127.685 397.183 127.685 394.749C127.685 392.315 129.658 390.342 132.092 390.342C134.526 390.342 136.499 392.315 136.499 394.749C136.499 397.183 134.526 399.156 132.092 399.156Z" fill="#3F3D56"/>
<path d="M93.1624 382.997C90.7284 382.997 88.7553 381.024 88.7553 378.59C88.7553 376.156 90.7284 374.183 93.1624 374.183C95.5964 374.183 97.5695 376.156 97.5695 378.59C97.5695 381.024 95.5964 382.997 93.1624 382.997Z" fill="#3F3D56"/>
<path d="M170.928 438.338L209.95 409.111L248.439 437.938L249.32 436.763L209.95 407.274L171.113 436.364L132.521 394.13L132.366 394.067L93.4364 378.382L92.8874 379.745L131.662 395.368L170.928 438.338Z" fill="#3F3D56"/>
<path d="M387.974 169.587C390.229 169.585 392.457 170.079 394.5 171.034C396.543 171.989 398.351 173.382 399.796 175.113L468.901 172.953L471.606 161.303L507.368 178.755L502.742 210.661L397.426 197.176C395.488 198.682 393.218 199.703 390.806 200.155C388.394 200.607 385.909 200.476 383.558 199.774C381.206 199.072 379.057 197.819 377.287 196.118C375.518 194.418 374.18 192.32 373.384 189.998C372.589 187.677 372.359 185.199 372.715 182.771C373.07 180.343 374 178.034 375.427 176.038C376.854 174.042 378.737 172.415 380.919 171.293C383.101 170.17 385.52 169.586 387.974 169.587H387.974Z" fill="#9F616A"/>
<path d="M515.977 651.672H497.07L488.074 578.746L515.98 578.747L515.977 651.672Z" fill="#9F616A"/>
<path d="M520.799 645.5L483.565 645.498H483.563C477.27 645.499 471.235 647.999 466.785 652.449C462.335 656.898 459.835 662.934 459.834 669.227V669.998L520.798 670L520.799 645.5Z" fill="#2F2E41"/>
<path d="M587.318 636.638L569.155 641.887L540.266 574.324L567.074 566.578L587.318 636.638Z" fill="#9F616A"/>
<path d="M590.238 629.369L554.467 639.705L554.466 639.706C548.42 641.453 543.316 645.531 540.277 651.041C537.237 656.551 536.511 663.044 538.258 669.089L538.472 669.83L597.04 652.906L590.238 629.369Z" fill="#2F2E41"/>
<path d="M539.195 335.005C539.195 335.005 545.92 353.768 535.311 379.368L527.125 484.803L524.702 634.753H490.234L469.374 481.889L456.846 343.281L539.195 335.005Z" fill="#2F2E41"/>
<path d="M558.582 335.005C558.582 335.005 565.306 353.768 554.698 379.368L546.511 484.803L587.27 627.615H552.801L488.76 481.889L476.233 343.281L558.582 335.005Z" fill="#2F2E41"/>
<path d="M457.466 93.1751C436.547 93.1751 419.589 76.2167 419.589 55.2975C419.589 34.3783 436.547 17.4199 457.466 17.4199C478.386 17.4199 495.344 34.3783 495.344 55.2975C495.344 76.2167 478.386 93.1751 457.466 93.1751Z" fill="#9F616A"/>
<path d="M452.4 147.435L460.076 111.769L499.162 89.5771L507.088 100.673C507.088 100.673 563.014 115.37 556.25 179.59C549.487 243.81 552.571 274.653 552.571 274.653L567.993 345.594C567.993 345.594 563.246 346.409 454.288 365.444L449.662 211.226L452.4 147.435Z" fill="#CBCBCB"/>
<path opacity="0.1" d="M490.317 494.501L525.81 566.195V586.746L490.317 494.501Z" fill="#231D1B"/>
<path d="M498.307 67.2784C494.695 76.9503 481.03 78.2905 476.209 69.1606C475.835 68.452 475.529 67.7088 475.297 66.9414C473.977 62.5562 474.808 57.7255 472.369 53.5325C471.775 52.4835 470.923 51.6035 469.894 50.9758C461.788 46.1948 453.809 61.3654 446.272 57.121C441.649 54.5184 442.638 46.9605 438.525 43.6109C433.096 39.19 425.255 45.7744 418.295 45.0226C410.55 44.1861 406.886 34.3753 408.569 26.77C410.623 17.495 417.879 9.96694 426.394 5.75525C434.909 1.54357 444.583 0.271838 454.08 0.0357918C464.87 -0.232409 476.161 0.912956 485.284 6.68015C496.379 13.6937 502.63 26.7502 504.014 39.803C504.856 47.7432 501.256 59.3803 498.307 67.2784Z" fill="#2F2E41"/>
<path d="M312.697 327.27C312.641 327.27 312.586 327.269 312.53 327.266C283.992 325.773 257.095 313.467 237.307 292.85C217.52 272.233 206.328 244.853 206.007 216.278C205.687 187.703 216.262 160.079 235.583 139.023C254.903 117.968 281.518 105.062 310.015 102.929C310.367 102.902 310.722 102.947 311.056 103.063C311.39 103.179 311.696 103.362 311.956 103.602C312.215 103.838 312.422 104.125 312.565 104.444C312.707 104.764 312.782 105.11 312.785 105.46L315.242 324.674C315.248 325.355 314.984 326.011 314.507 326.498C314.03 326.985 313.379 327.262 312.697 327.27V327.27Z" fill="#3F3D56"/>
<path d="M400.849 139.178C399.974 139.189 399.139 139.546 398.526 140.17L323.06 217.348C322.756 217.656 322.517 218.022 322.356 218.424C322.195 218.826 322.115 219.256 322.121 219.689L323.297 324.583C323.3 325.033 323.396 325.478 323.58 325.889C323.763 326.3 324.03 326.669 324.363 326.972C324.696 327.279 325.09 327.514 325.518 327.662C325.946 327.811 326.4 327.87 326.853 327.836C347.835 326.266 367.964 318.875 384.978 306.495C401.991 294.114 415.215 277.235 423.164 257.752C431.112 238.27 433.47 216.957 429.972 196.208C426.474 175.46 417.26 156.098 403.364 140.298C403.063 139.957 402.695 139.682 402.284 139.49C401.872 139.297 401.426 139.191 400.972 139.179C400.931 139.178 400.89 139.178 400.849 139.178Z" fill="#E6E6E6"/>
<path d="M324.111 102.033C323.269 102.044 322.461 102.373 321.853 102.956C321.526 103.267 321.268 103.642 321.093 104.057C320.919 104.473 320.832 104.92 320.839 105.371L321.9 200.013C321.908 200.665 322.108 201.3 322.476 201.837C322.844 202.375 323.364 202.792 323.968 203.034C324.573 203.277 325.236 203.335 325.874 203.201C326.512 203.066 327.095 202.746 327.551 202.28L393.405 134.933C393.708 134.623 393.947 134.256 394.108 133.854C394.269 133.451 394.349 133.021 394.344 132.587C394.339 132.153 394.249 131.725 394.078 131.326C393.907 130.928 393.66 130.567 393.35 130.263C393.31 130.225 393.269 130.187 393.227 130.15C374.075 113.292 349.795 103.387 324.316 102.037C324.248 102.034 324.179 102.033 324.111 102.033Z" fill="#6C63FF"/>
<path d="M426.529 212.768C428.784 212.766 431.012 213.26 433.055 214.215C435.098 215.17 436.906 216.563 438.351 218.294L507.456 216.134L510.16 204.484L545.923 221.936L541.296 253.842L435.98 240.358C434.042 241.863 431.773 242.884 429.361 243.336C426.949 243.788 424.464 243.657 422.112 242.955C419.761 242.253 417.611 241 415.842 239.3C414.072 237.599 412.734 235.501 411.939 233.18C411.143 230.858 410.914 228.38 411.269 225.952C411.624 223.524 412.554 221.216 413.981 219.219C415.408 217.223 417.291 215.596 419.473 214.474C421.656 213.352 424.075 212.767 426.529 212.768H426.529Z" fill="#9F616A"/>
<path d="M551.749 235.077L553.67 140.028C553.738 136.701 553.145 133.395 551.926 130.299C550.708 127.204 548.888 124.38 546.571 121.992C544.255 119.605 541.488 117.7 538.431 116.388C535.373 115.076 532.086 114.383 528.76 114.349C525.433 114.316 522.133 114.942 519.049 116.192C515.966 117.441 513.161 119.29 510.797 121.631C508.433 123.971 506.556 126.757 505.275 129.827C503.994 132.898 503.335 136.192 503.335 139.519V208.983L551.749 235.077Z" fill="#CBCBCB"/>
</svg>
