<svg width="809" height="605" viewBox="0 0 809 605" fill="none" xmlns="http://www.w3.org/2000/svg">
<path d="M704.753 379.423H149.026C145.233 379.419 141.596 377.91 138.913 375.228C136.231 372.545 134.722 368.909 134.718 365.115V22.4542C134.721 19.6751 135.826 17.0107 137.791 15.0455C139.756 13.0803 142.421 11.9749 145.2 11.9717H708.397C711.225 11.9749 713.935 13.0994 715.934 15.0986C717.934 17.0977 719.058 19.8082 719.061 22.6354V365.115C719.057 368.909 717.548 372.545 714.866 375.228C712.183 377.91 708.546 379.419 704.753 379.423V379.423Z" fill="#F2F2F2"/>
<path d="M684.48 359.161H166.558C158.965 359.161 152.789 353.377 152.789 346.267V47.8739C152.789 42.6015 157.366 38.3119 162.992 38.3119H687.877C693.596 38.3119 698.249 42.6722 698.249 48.0314V346.267C698.249 353.377 692.072 359.161 684.48 359.161Z" fill="white"/>
<path d="M718.862 21.6358H134.517V14.3513C134.522 10.5452 136.037 6.89679 138.729 4.20633C141.422 1.51588 145.071 0.00314444 148.877 0H704.501C708.307 0.00312611 711.957 1.51585 714.649 4.20631C717.341 6.89677 718.856 10.5452 718.862 14.3513V21.6358Z" fill="#CCCCCC"/>
<path d="M160.615 14.5539C162.666 14.5539 164.329 12.8909 164.329 10.8395C164.329 8.78812 162.666 7.12512 160.615 7.12512C158.563 7.12512 156.9 8.78812 156.9 10.8395C156.9 12.8909 158.563 14.5539 160.615 14.5539Z" fill="white"/>
<path d="M174.714 14.5539C176.766 14.5539 178.429 12.8909 178.429 10.8395C178.429 8.78812 176.766 7.12512 174.714 7.12512C172.663 7.12512 171 8.78812 171 10.8395C171 12.8909 172.663 14.5539 174.714 14.5539Z" fill="white"/>
<path d="M188.814 14.5539C190.865 14.5539 192.528 12.8909 192.528 10.8395C192.528 8.78812 190.865 7.12512 188.814 7.12512C186.762 7.12512 185.099 8.78812 185.099 10.8395C185.099 12.8909 186.762 14.5539 188.814 14.5539Z" fill="white"/>
<path d="M627.473 309.115H226.105C222.082 309.111 218.224 307.51 215.379 304.665C212.534 301.821 210.934 297.963 210.929 293.94V100.43C210.933 97.4212 212.13 94.5364 214.257 92.4087C216.385 90.2809 219.27 89.084 222.279 89.0806H631.117C634.174 89.0841 637.105 90.3001 639.267 92.4618C641.429 94.6235 642.645 97.5544 642.648 100.611V293.94C642.644 297.963 641.043 301.821 638.198 304.665C635.353 307.51 631.496 309.111 627.473 309.115V309.115ZM222.279 90.8149C219.73 90.8178 217.286 91.8318 215.483 93.6344C213.681 95.437 212.667 97.881 212.664 100.43V293.94C212.668 297.504 214.085 300.92 216.605 303.44C219.125 305.96 222.542 307.377 226.105 307.381H627.473C631.036 307.377 634.453 305.96 636.973 303.44C639.492 300.92 640.91 297.504 640.914 293.94V100.611C640.911 98.0142 639.878 95.5241 638.041 93.6875C636.205 91.8509 633.715 90.8178 631.117 90.8149H222.279Z" fill="#CCCCCC"/>
<path d="M239.98 293.94H613.598C617.277 293.94 620.807 292.478 623.409 289.876C626.011 287.274 627.473 283.745 627.473 280.065V118.299C627.473 114.619 626.011 111.09 623.409 108.488C620.807 105.886 617.277 104.424 613.598 104.424H239.98C236.3 104.424 232.771 105.886 230.169 108.488C227.567 111.09 226.105 114.619 226.105 118.299V280.065C226.105 283.745 227.567 287.274 230.169 289.876C232.771 292.478 236.3 293.94 239.98 293.94Z" fill="#F2F2F2"/>
<path d="M282.402 151.488C286.713 151.488 290.207 147.994 290.207 143.684C290.207 139.374 286.713 135.88 282.402 135.88C278.092 135.88 274.598 139.374 274.598 143.684C274.598 147.994 278.092 151.488 282.402 151.488Z" fill="#CCCCCC"/>
<path d="M282.402 180.972C286.713 180.972 290.207 177.478 290.207 173.167C290.207 168.857 286.713 165.363 282.402 165.363C278.092 165.363 274.598 168.857 274.598 173.167C274.598 177.478 278.092 180.972 282.402 180.972Z" fill="#CCCCCC"/>
<path d="M282.402 210.455C286.713 210.455 290.207 206.961 290.207 202.651C290.207 198.34 286.713 194.846 282.402 194.846C278.092 194.846 274.598 198.34 274.598 202.651C274.598 206.961 278.092 210.455 282.402 210.455Z" fill="#CCCCCC"/>
<path d="M282.402 239.939C286.713 239.939 290.207 236.444 290.207 232.134C290.207 227.824 286.713 224.33 282.402 224.33C278.092 224.33 274.598 227.824 274.598 232.134C274.598 236.444 278.092 239.939 282.402 239.939Z" fill="#CCCCCC"/>
<path d="M578.113 144.551H321.426C321.196 144.551 320.975 144.46 320.813 144.297C320.65 144.135 320.559 143.914 320.559 143.684C320.559 143.454 320.65 143.234 320.813 143.071C320.975 142.908 321.196 142.817 321.426 142.817H578.113C578.343 142.817 578.564 142.908 578.726 143.071C578.889 143.234 578.98 143.454 578.98 143.684C578.98 143.914 578.889 144.135 578.726 144.297C578.564 144.46 578.343 144.551 578.113 144.551Z" fill="#CCCCCC"/>
<path d="M578.113 174.034H321.426C321.196 174.034 320.975 173.943 320.813 173.781C320.65 173.618 320.559 173.397 320.559 173.167C320.559 172.937 320.65 172.717 320.813 172.554C320.975 172.392 321.196 172.3 321.426 172.3H578.113C578.343 172.3 578.564 172.392 578.726 172.554C578.889 172.717 578.98 172.937 578.98 173.167C578.98 173.397 578.889 173.618 578.726 173.781C578.564 173.943 578.343 174.034 578.113 174.034Z" fill="#CCCCCC"/>
<path d="M578.113 203.518H321.426C321.196 203.518 320.975 203.427 320.813 203.264C320.65 203.101 320.559 202.881 320.559 202.651C320.559 202.421 320.65 202.2 320.813 202.038C320.975 201.875 321.196 201.784 321.426 201.784H578.113C578.343 201.784 578.564 201.875 578.726 202.038C578.889 202.2 578.98 202.421 578.98 202.651C578.98 202.881 578.889 203.101 578.726 203.264C578.564 203.427 578.343 203.518 578.113 203.518Z" fill="#CCCCCC"/>
<path d="M578.113 233.001H321.426C321.196 233.001 320.975 232.91 320.813 232.747C320.65 232.585 320.559 232.364 320.559 232.134C320.559 231.904 320.65 231.684 320.813 231.521C320.975 231.358 321.196 231.267 321.426 231.267H578.113C578.343 231.267 578.564 231.358 578.726 231.521C578.889 231.684 578.98 231.904 578.98 232.134C578.98 232.364 578.889 232.585 578.726 232.747C578.564 232.91 578.343 233.001 578.113 233.001Z" fill="#CCCCCC"/>
<path d="M369.988 262.485H344.84C343.69 262.483 342.588 262.026 341.775 261.213C340.963 260.4 340.505 259.298 340.504 258.149V234.736C340.505 233.586 340.962 232.484 341.775 231.671C342.588 230.858 343.69 230.401 344.84 230.4H369.988C371.138 230.401 372.24 230.858 373.053 231.671C373.866 232.484 374.323 233.586 374.324 234.736V258.149C374.323 259.298 373.866 260.4 373.053 261.213C372.24 262.026 371.138 262.483 369.988 262.485V262.485Z" fill="#6C63FF"/>
<path d="M426.355 262.485H401.207C400.057 262.483 398.955 262.026 398.142 261.213C397.33 260.401 396.872 259.298 396.871 258.149V205.252C396.872 204.103 397.33 203.001 398.142 202.188C398.955 201.375 400.057 200.918 401.207 200.917H426.355C427.505 200.918 428.607 201.375 429.42 202.188C430.233 203.001 430.69 204.103 430.691 205.252V258.149C430.69 259.298 430.233 260.401 429.42 261.213C428.607 262.026 427.505 262.483 426.355 262.485V262.485Z" fill="#6C63FF"/>
<path d="M483.59 262.485H458.441C457.292 262.483 456.189 262.026 455.377 261.213C454.564 260.401 454.107 259.298 454.105 258.149V175.769C454.107 174.619 454.564 173.517 455.377 172.704C456.189 171.892 457.292 171.434 458.441 171.433H483.59C484.739 171.434 485.841 171.892 486.654 172.704C487.467 173.517 487.924 174.619 487.925 175.769V258.149C487.924 259.298 487.467 260.401 486.654 261.213C485.841 262.026 484.739 262.483 483.59 262.485V262.485Z" fill="#6C63FF"/>
<path d="M542.558 262.485H517.41C516.26 262.483 515.158 262.026 514.345 261.213C513.533 260.401 513.075 259.298 513.074 258.149V147.153C513.075 146.003 513.533 144.901 514.345 144.088C515.158 143.275 516.26 142.818 517.41 142.817H542.558C543.708 142.818 544.81 143.275 545.623 144.088C546.436 144.901 546.893 146.003 546.894 147.153V258.149C546.893 259.298 546.436 260.401 545.623 261.213C544.81 262.026 543.708 262.483 542.558 262.485V262.485Z" fill="#6C63FF"/>
<path d="M578.113 262.485H321.426C321.196 262.485 320.975 262.393 320.813 262.231C320.65 262.068 320.559 261.848 320.559 261.618C320.559 261.388 320.65 261.167 320.813 261.004C320.975 260.842 321.196 260.75 321.426 260.75H578.113C578.343 260.75 578.564 260.842 578.726 261.004C578.889 261.167 578.98 261.388 578.98 261.618C578.98 261.848 578.889 262.068 578.726 262.231C578.564 262.393 578.343 262.485 578.113 262.485Z" fill="#3F3D56"/>
<path d="M618.846 362.928C619.548 361.865 620.476 360.968 621.563 360.302C622.649 359.635 623.869 359.215 625.136 359.071C626.402 358.927 627.685 359.062 628.894 359.467C630.103 359.873 631.208 360.538 632.131 361.417L659.669 347.205L657.957 363.217L632.069 374.257C630.49 375.711 628.433 376.536 626.287 376.574C624.141 376.613 622.055 375.863 620.425 374.466C618.795 373.07 617.734 371.124 617.443 368.997C617.152 366.871 617.651 364.711 618.846 362.928Z" fill="#FFB8B8"/>
<path d="M642.54 368.9C641.915 368.41 641.454 367.741 641.219 366.982L639.028 359.907C638.793 359.14 638.799 358.32 639.045 357.556C639.291 356.793 639.766 356.124 640.404 355.639L662.724 338.781L686.897 293.939C687.909 292.635 689.169 291.543 690.603 290.725C692.037 289.908 693.619 289.381 695.257 289.175C696.895 288.969 698.557 289.088 700.15 289.524C701.742 289.96 703.232 290.706 704.536 291.719C705.84 292.731 706.932 293.991 707.749 295.425C708.567 296.86 709.093 298.441 709.299 300.079C709.505 301.717 709.387 303.379 708.95 304.971C708.514 306.564 707.768 308.054 706.755 309.358L693.003 338.382C688.83 347.192 681.6 354.186 672.656 358.064L646.499 369.408C645.996 369.626 645.453 369.736 644.905 369.73C644.357 369.724 643.816 369.603 643.318 369.374C643.041 369.247 642.78 369.088 642.54 368.9V368.9Z" fill="#3F3D56"/>
<path d="M707.363 275.223C719.126 275.223 728.662 265.688 728.662 253.925C728.662 242.162 719.126 232.627 707.363 232.627C695.6 232.627 686.064 242.162 686.064 253.925C686.064 265.688 695.6 275.223 707.363 275.223Z" fill="#FFB8B8"/>
<path d="M698.723 533.32L688.092 533.319L683.035 492.313L698.727 492.314L698.723 533.32Z" fill="#FFB8B8"/>
<path d="M680.498 530.281H701.001V543.19H667.588C667.588 541.495 667.922 539.817 668.571 538.25C669.219 536.684 670.17 535.261 671.369 534.062C672.568 532.864 673.991 531.913 675.557 531.264C677.124 530.615 678.802 530.281 680.498 530.281Z" fill="#2F2E41"/>
<path d="M733.41 533.322L722.779 533.321L717.723 492.314L733.415 492.316L733.41 533.322Z" fill="#FFB8B8"/>
<path d="M715.185 530.283H735.688V543.192H702.275C702.275 541.497 702.609 539.818 703.258 538.252C703.907 536.686 704.858 535.263 706.056 534.064C707.255 532.865 708.678 531.914 710.244 531.265C711.811 530.617 713.489 530.283 715.185 530.283V530.283Z" fill="#2F2E41"/>
<path d="M734.187 522.916L721.728 522.916C720.871 522.915 720.037 522.631 719.356 522.11C718.675 521.588 718.185 520.857 717.961 520.029L700.028 453.517C700 453.413 699.934 453.324 699.844 453.265C699.754 453.207 699.645 453.185 699.539 453.202C699.433 453.219 699.338 453.275 699.271 453.359C699.204 453.443 699.17 453.548 699.176 453.656L702.799 516.735C702.831 517.292 702.743 517.851 702.541 518.371C702.338 518.892 702.027 519.363 701.627 519.753C701.226 520.143 700.747 520.442 700.221 520.631C699.696 520.82 699.135 520.893 698.579 520.847L684.576 519.679C683.678 519.602 682.835 519.218 682.188 518.592C681.541 517.966 681.13 517.136 681.024 516.242L668.267 383.788L673.202 386.749L719.448 378.898L738.056 518.499C738.129 519.05 738.084 519.61 737.923 520.142C737.762 520.675 737.49 521.166 737.123 521.585C736.757 522.003 736.306 522.338 735.799 522.568C735.293 522.797 734.743 522.916 734.187 522.916H734.187Z" fill="#2F2E41"/>
<path d="M683.733 397.768C678.631 397.727 673.633 396.321 669.259 393.694C668.585 393.295 668.047 392.701 667.716 391.991C667.386 391.281 667.278 390.488 667.406 389.715C669.032 379.754 677.538 328.66 685.277 300.806C688.429 289.461 695.398 283.35 705.991 282.644C721.486 281.628 735.259 293.75 736.693 309.7C739.223 337.838 728.946 377.815 724.41 393.697C724.235 394.311 723.911 394.872 723.468 395.331C723.025 395.79 722.476 396.133 721.869 396.331C721.262 396.528 720.616 396.574 719.987 396.463C719.359 396.353 718.767 396.09 718.264 395.697L709.019 388.506C708.45 388.071 707.746 387.849 707.031 387.879C706.315 387.909 705.633 388.188 705.102 388.669C697.31 395.619 689.907 397.768 683.733 397.768Z" fill="#3F3D56"/>
<path opacity="0.2" d="M714.311 323.469L722.114 356.421L710.839 384.17L718.646 357.289L714.311 323.469Z" fill="#231D1B"/>
<path d="M719.516 271.44C721.411 271.475 723.294 271.134 725.056 270.438C725.831 270.139 726.636 269.893 727.41 269.594C734.245 266.954 738.748 259.675 738.909 252.35C739.071 245.025 735.278 237.915 729.645 233.229C724.012 228.543 716.715 226.137 709.409 225.581C701.539 224.981 692.678 226.977 688.28 233.53C687.109 235.275 686.29 237.391 686.984 239.498C687.192 240.133 687.563 240.703 688.06 241.15C690.024 242.898 691.982 241.584 693.984 241.468C696.735 241.309 699.207 243.536 700.095 246.145C700.983 248.755 700.592 251.627 699.875 254.289C699.328 255.89 698.984 257.553 698.849 259.24C698.791 260.086 698.95 260.932 699.311 261.7C699.672 262.467 700.223 263.129 700.912 263.623C702.631 264.663 704.889 264.061 706.61 263.024C708.33 261.986 709.817 260.543 711.676 259.78C713.534 259.016 716.031 259.186 717.113 260.879C717.456 261.495 717.689 262.167 717.8 262.864C718.77 267.282 718.547 267.022 719.516 271.44V271.44Z" fill="#2F2E41"/>
<path d="M686.504 503.572L553.134 457.126C550.845 456.326 548.968 454.651 547.912 452.469C546.857 450.286 546.711 447.774 547.506 445.484L582.164 345.97C582.75 344.294 583.977 342.918 585.576 342.145C587.175 341.372 589.015 341.265 590.693 341.847L728.571 389.863C730.277 390.459 731.676 391.707 732.463 393.334C733.249 394.961 733.358 396.833 732.766 398.54L698.146 497.944C697.346 500.233 695.671 502.11 693.489 503.165C691.306 504.22 688.794 504.367 686.504 503.572V503.572Z" fill="#E6E6E6"/>
<path d="M564.515 451.407L681.137 492.021C683.358 492.794 685.795 492.654 687.912 491.63C690.03 490.607 691.654 488.784 692.427 486.563L720.413 406.207C721.186 403.986 721.046 401.549 720.022 399.432C718.999 397.315 717.176 395.691 714.956 394.917L598.333 354.304C596.112 353.53 593.675 353.671 591.558 354.694C589.441 355.718 587.817 357.54 587.043 359.761L559.057 440.118C558.674 441.217 558.512 442.382 558.579 443.544C558.646 444.706 558.941 445.844 559.448 446.893C559.955 447.941 560.663 448.879 561.532 449.654C562.402 450.428 563.415 451.024 564.515 451.407Z" fill="white"/>
<path d="M593.8 394.95L588.024 392.938C587.711 392.829 587.454 392.6 587.31 392.301C587.166 392.002 587.146 391.659 587.255 391.345L589.266 385.57C589.375 385.257 589.605 385 589.903 384.856C590.202 384.711 590.545 384.691 590.859 384.8L596.634 386.811C596.948 386.921 597.204 387.15 597.349 387.449C597.493 387.747 597.513 388.091 597.404 388.404L595.393 394.18C595.284 394.493 595.054 394.75 594.756 394.894C594.457 395.038 594.114 395.058 593.8 394.95V394.95Z" fill="#6C63FF"/>
<path d="M588.589 409.913L582.813 407.902C582.5 407.793 582.243 407.563 582.099 407.265C581.954 406.966 581.934 406.623 582.043 406.309L584.055 400.534C584.164 400.221 584.393 399.964 584.692 399.819C584.99 399.675 585.334 399.655 585.648 399.764L591.423 401.775C591.736 401.885 591.993 402.114 592.138 402.412C592.282 402.711 592.302 403.055 592.193 403.368L590.182 409.143C590.072 409.457 589.843 409.713 589.544 409.858C589.246 410.002 588.902 410.022 588.589 409.913V409.913Z" fill="#3F3D56"/>
<path d="M583.377 424.877L577.601 422.866C577.288 422.756 577.032 422.527 576.887 422.228C576.743 421.93 576.723 421.586 576.832 421.273L578.843 415.497C578.952 415.184 579.182 414.927 579.48 414.783C579.779 414.639 580.122 414.619 580.436 414.727L586.211 416.739C586.525 416.848 586.782 417.077 586.926 417.376C587.07 417.675 587.09 418.018 586.981 418.332L584.97 424.107C584.861 424.42 584.631 424.677 584.333 424.821C584.034 424.966 583.691 424.986 583.377 424.877V424.877Z" fill="#CCCCCC"/>
<path d="M632.61 405.227L604.782 395.536C604.627 395.482 604.483 395.398 604.36 395.289C604.237 395.18 604.137 395.047 604.065 394.899C603.993 394.751 603.951 394.591 603.942 394.426C603.932 394.262 603.955 394.097 604.009 393.942C604.063 393.787 604.147 393.643 604.257 393.521C604.367 393.398 604.499 393.298 604.647 393.227C604.796 393.155 604.957 393.114 605.121 393.104C605.285 393.095 605.45 393.119 605.605 393.173L633.433 402.864C633.589 402.918 633.732 403.002 633.855 403.111C633.978 403.22 634.079 403.353 634.151 403.501C634.222 403.649 634.264 403.81 634.274 403.974C634.283 404.138 634.261 404.303 634.206 404.458C634.152 404.614 634.068 404.757 633.958 404.88C633.849 405.002 633.716 405.102 633.568 405.174C633.42 405.245 633.259 405.287 633.095 405.296C632.93 405.305 632.766 405.282 632.61 405.227V405.227Z" fill="#CCCCCC"/>
<path d="M627.399 420.191L599.571 410.5C599.257 410.391 599 410.161 598.856 409.863C598.711 409.564 598.692 409.22 598.801 408.907C598.91 408.594 599.139 408.336 599.438 408.192C599.736 408.048 600.08 408.028 600.394 408.137L628.222 417.828C628.377 417.882 628.521 417.966 628.644 418.075C628.767 418.184 628.867 418.317 628.939 418.465C629.01 418.613 629.052 418.773 629.062 418.938C629.071 419.102 629.048 419.266 628.994 419.422C628.94 419.577 628.856 419.72 628.746 419.843C628.637 419.966 628.504 420.066 628.356 420.137C628.208 420.209 628.047 420.25 627.883 420.259C627.719 420.269 627.554 420.245 627.399 420.191V420.191Z" fill="#CCCCCC"/>
<path d="M622.188 435.155L594.359 425.464C594.046 425.354 593.789 425.125 593.644 424.827C593.5 424.528 593.48 424.184 593.589 423.871C593.698 423.557 593.928 423.3 594.226 423.156C594.525 423.012 594.869 422.992 595.182 423.101L623.011 432.792C623.324 432.901 623.581 433.13 623.725 433.429C623.87 433.728 623.89 434.071 623.781 434.385C623.671 434.698 623.442 434.955 623.144 435.1C622.845 435.244 622.501 435.264 622.188 435.155V435.155Z" fill="#CCCCCC"/>
<path d="M696.244 443.262C696.447 442.776 696.638 442.282 696.813 441.777C699.101 435.21 698.685 428.003 695.659 421.742C692.632 415.48 687.242 410.678 680.674 408.391L671.527 434.654L696.244 443.262Z" fill="#6C63FF"/>
<path d="M668.867 436.253L678.014 409.989C673.18 408.305 667.959 408.073 662.995 409.321C658.031 410.569 653.54 413.243 650.078 417.012C646.615 420.782 644.331 425.482 643.508 430.534C642.684 435.586 643.358 440.768 645.444 445.442C647.531 450.116 650.941 454.077 655.252 456.836C659.563 459.596 664.587 461.033 669.705 460.971C674.824 460.909 679.812 459.351 684.055 456.488C688.298 453.625 691.611 449.583 693.584 444.86L668.867 436.253Z" fill="#3F3D56"/>
<path d="M701.613 398.577C701.51 397.307 701.686 396.029 702.13 394.834C702.574 393.639 703.274 392.556 704.182 391.66C705.09 390.765 706.183 390.08 707.384 389.653C708.585 389.226 709.865 389.068 711.134 389.189L724.032 361.013L732.566 374.669L719.01 399.332C718.665 401.45 717.554 403.368 715.89 404.723C714.225 406.077 712.121 406.774 709.976 406.681C707.832 406.588 705.796 405.712 704.255 404.218C702.714 402.725 701.774 400.718 701.613 398.577V398.577Z" fill="#FFB8B8"/>
<path d="M723.943 388.654C723.148 388.655 722.373 388.413 721.719 387.961L715.629 383.745C714.971 383.287 714.469 382.638 714.192 381.885C713.915 381.133 713.875 380.313 714.079 379.538L721.237 352.5L712.584 302.297C712.574 300.645 712.89 299.007 713.513 297.477C714.137 295.947 715.056 294.555 716.217 293.381C717.379 292.206 718.761 291.272 720.284 290.632C721.808 289.992 723.442 289.659 725.094 289.651C726.746 289.643 728.384 289.96 729.913 290.586C731.442 291.211 732.833 292.132 734.006 293.295C735.179 294.458 736.112 295.841 736.75 297.365C737.388 298.889 737.72 300.523 737.726 302.175L744.817 333.5C746.97 343.007 745.597 352.973 740.953 361.543L727.372 386.611C727.111 387.093 726.751 387.514 726.316 387.848C725.881 388.182 725.381 388.42 724.848 388.548C724.551 388.619 724.247 388.655 723.943 388.654V388.654Z" fill="#3F3D56"/>
<path d="M789.94 543.677H625.175C624.945 543.677 624.724 543.586 624.562 543.423C624.399 543.261 624.308 543.04 624.308 542.81C624.308 542.58 624.399 542.36 624.562 542.197C624.724 542.034 624.945 541.943 625.175 541.943H789.94C790.17 541.943 790.391 542.034 790.554 542.197C790.716 542.36 790.808 542.58 790.808 542.81C790.808 543.04 790.716 543.261 790.554 543.423C790.391 543.586 790.17 543.677 789.94 543.677Z" fill="#CCCCCC"/>
<path d="M327.265 385.653L191.31 441.427C188.975 442.381 186.357 442.371 184.03 441.398C181.702 440.425 179.856 438.568 178.896 436.235L137.278 334.793C136.579 333.082 136.586 331.164 137.299 329.459C138.012 327.754 139.372 326.402 141.081 325.698L281.632 268.039C283.373 267.328 285.324 267.336 287.058 268.061C288.793 268.786 290.169 270.17 290.884 271.909L332.457 373.24C333.411 375.575 333.401 378.193 332.428 380.52C331.455 382.847 329.598 384.693 327.265 385.653V385.653Z" fill="#E6E6E6"/>
<path d="M196.235 429.123L315.118 380.353C317.382 379.424 319.184 377.634 320.128 375.377C321.072 373.119 321.081 370.579 320.152 368.315L286.546 286.401C286.086 285.28 285.41 284.261 284.556 283.401C283.702 282.542 282.687 281.859 281.57 281.391C280.452 280.924 279.253 280.681 278.041 280.677C276.83 280.673 275.629 280.907 274.508 281.367L155.625 330.137C154.504 330.597 153.485 331.273 152.625 332.127C151.765 332.981 151.082 333.995 150.615 335.113C150.147 336.231 149.905 337.43 149.9 338.641C149.896 339.853 150.131 341.053 150.591 342.174L184.197 424.089C184.657 425.21 185.333 426.229 186.187 427.089C187.041 427.948 188.055 428.631 189.173 429.099C190.291 429.566 191.49 429.809 192.702 429.813C193.913 429.817 195.114 429.582 196.235 429.123V429.123Z" fill="white"/>
<path d="M285.889 308.74L284.141 309.457L284.261 309.748L286.008 309.031L285.889 308.74Z" fill="#E6E6E6"/>
<path d="M280.73 311.197L277.199 312.645L277.079 312.354L280.61 310.906L280.73 311.197ZM273.668 314.094L270.137 315.542L270.017 315.251L273.548 313.803L273.668 314.094ZM266.606 316.991L263.075 318.439L262.955 318.148L266.486 316.7L266.606 316.991ZM259.544 319.888L256.013 321.336L255.893 321.045L259.424 319.597L259.544 319.888ZM252.482 322.785L248.951 324.234L248.831 323.942L252.362 322.494L252.482 322.785ZM245.42 325.682L241.889 327.131L241.77 326.839L245.3 325.391L245.42 325.682ZM238.358 328.579L234.827 330.028L234.708 329.736L238.239 328.288L238.358 328.579ZM231.296 331.476L227.765 332.925L227.646 332.633L231.177 331.185L231.296 331.476ZM224.234 334.373L220.703 335.822L220.584 335.53L224.115 334.082L224.234 334.373ZM217.172 337.27L213.641 338.719L213.522 338.427L217.053 336.979L217.172 337.27ZM210.11 340.167L206.579 341.616L206.46 341.325L209.991 339.876L210.11 340.167ZM203.048 343.064L199.517 344.513L199.398 344.222L202.929 342.773L203.048 343.064ZM195.986 345.961L192.455 347.41L192.336 347.119L195.867 345.67L195.986 345.961ZM188.924 348.858L185.393 350.307L185.274 350.016L188.805 348.567L188.924 348.858ZM181.862 351.756L178.332 353.204L178.212 352.913L181.743 351.464L181.862 351.756ZM174.801 354.653L171.27 356.101L171.15 355.81L174.681 354.361L174.801 354.653Z" fill="#E6E6E6"/>
<path d="M167.619 357.259L165.871 357.976L165.991 358.267L167.739 357.55L167.619 357.259Z" fill="#E6E6E6"/>
<path d="M239.616 359.373L237.868 360.09L237.988 360.381L239.736 359.664L239.616 359.373Z" fill="#E6E6E6"/>
<path d="M234.509 361.808L231.031 363.235L230.911 362.944L234.39 361.517L234.509 361.808ZM227.552 364.662L224.074 366.089L223.954 365.798L227.433 364.371L227.552 364.662ZM220.595 367.516L217.117 368.943L216.997 368.652L220.476 367.225L220.595 367.516ZM213.638 370.37L210.16 371.797L210.04 371.506L213.519 370.079L213.638 370.37ZM206.681 373.224L203.203 374.651L203.083 374.36L206.562 372.933L206.681 373.224ZM199.724 376.078L196.245 377.505L196.126 377.214L199.605 375.787L199.724 376.078ZM192.767 378.932L189.288 380.359L189.169 380.068L192.647 378.641L192.767 378.932ZM185.81 381.786L182.331 383.213L182.212 382.922L185.69 381.495L185.81 381.786Z" fill="#E6E6E6"/>
<path d="M178.733 384.349L176.985 385.066L177.105 385.357L178.853 384.64L178.733 384.349Z" fill="#E6E6E6"/>
<path d="M210.792 386.172L209.044 386.889L209.163 387.18L210.911 386.463L210.792 386.172Z" fill="#E6E6E6"/>
<path d="M205.584 388.648L202.006 390.116L201.886 389.825L205.465 388.357L205.584 388.648ZM198.427 391.585L194.848 393.053L194.728 392.761L198.307 391.293L198.427 391.585ZM191.269 394.521L187.69 395.989L187.57 395.698L191.149 394.23L191.269 394.521Z" fill="#E6E6E6"/>
<path d="M183.992 397.166L182.244 397.883L182.363 398.174L184.111 397.457L183.992 397.166Z" fill="#E6E6E6"/>
<path d="M219.765 408.044L218.017 408.761L218.137 409.053L219.885 408.336L219.765 408.044Z" fill="#E6E6E6"/>
<path d="M214.558 410.521L210.979 411.989L210.86 411.698L214.438 410.229L214.558 410.521ZM207.4 413.457L203.821 414.925L203.702 414.634L207.281 413.166L207.4 413.457ZM200.242 416.393L196.663 417.862L196.544 417.57L200.123 416.102L200.242 416.393Z" fill="#E6E6E6"/>
<path d="M192.965 419.038L191.217 419.755L191.337 420.047L193.085 419.33L192.965 419.038Z" fill="#E6E6E6"/>
<path d="M201.283 416.228L302.028 374.899C304.466 373.895 306.407 371.966 307.424 369.533C308.441 367.101 308.452 364.364 307.454 361.924L287.099 312.309L286.902 312.396L262.179 371.508L243.843 363.842C243.505 363.699 243.138 363.637 242.772 363.66C242.405 363.683 242.049 363.79 241.731 363.974C241.254 364.261 240.884 364.698 240.68 365.216L227.723 396.193L214.317 390.589C214.027 390.468 213.717 390.405 213.403 390.404C213.09 390.403 212.779 390.463 212.489 390.582C212.199 390.701 211.935 390.876 211.712 391.097C211.49 391.318 211.313 391.581 211.192 391.87C211.107 392.081 202.84 412.362 201.283 416.228Z" fill="#6C63FF"/>
<path d="M200.973 416.695L200.682 416.574L211.049 391.785C211.323 391.13 211.846 390.612 212.503 390.342C213.159 390.073 213.896 390.075 214.551 390.348L227.692 395.844L240.575 365.038C240.85 364.384 241.373 363.865 242.029 363.596C242.686 363.326 243.422 363.328 244.077 363.602L262.149 371.159L286.999 311.738L287.289 311.86L262.318 371.571L243.956 363.892C243.67 363.772 243.363 363.71 243.053 363.709C242.742 363.708 242.435 363.768 242.148 363.886C241.861 364.004 241.6 364.177 241.38 364.395C241.16 364.614 240.986 364.873 240.866 365.16L227.861 396.256L214.429 390.639C213.851 390.398 213.201 390.396 212.622 390.634C212.043 390.871 211.582 391.329 211.339 391.906L200.973 416.695Z" fill="#3F3D56"/>
<path d="M210.851 388.521C212.069 388.521 213.055 387.535 213.055 386.317C213.055 385.1 212.069 384.113 210.851 384.113C209.634 384.113 208.647 385.1 208.647 386.317C208.647 387.535 209.634 388.521 210.851 388.521Z" fill="#3F3D56"/>
<path d="M239.676 361.722C240.893 361.722 241.88 360.736 241.88 359.518C241.88 358.301 240.893 357.314 239.676 357.314C238.459 357.314 237.472 358.301 237.472 359.518C237.472 360.736 238.459 361.722 239.676 361.722Z" fill="#3F3D56"/>
<path d="M284.559 311.012C285.776 311.012 286.763 310.025 286.763 308.808C286.763 307.591 285.776 306.604 284.559 306.604C283.341 306.604 282.354 307.591 282.354 308.808C282.354 310.025 283.341 311.012 284.559 311.012Z" fill="#3F3D56"/>
<path d="M161.191 383.816C162.337 383.246 163.344 382.432 164.141 381.43C164.938 380.429 165.506 379.265 165.804 378.021C166.103 376.776 166.125 375.481 165.868 374.228C165.612 372.974 165.084 371.791 164.322 370.763L170.868 306.763H156.721L151.519 369.256C149.877 370.652 148.804 372.601 148.504 374.734C148.203 376.868 148.696 379.038 149.888 380.832C151.08 382.627 152.889 383.922 154.973 384.472C157.056 385.022 159.269 384.789 161.191 383.816Z" fill="#FFB8B8"/>
<path d="M174.181 271.443C185.234 271.443 194.195 262.483 194.195 251.429C194.195 240.376 185.234 231.415 174.181 231.415C163.127 231.415 154.166 240.376 154.166 251.429C154.166 262.483 163.127 271.443 174.181 271.443Z" fill="#FFB8B8"/>
<path d="M177.949 344.035C177.147 344.035 176.368 343.772 175.731 343.286C175.094 342.801 174.634 342.119 174.421 341.347C172.817 335.521 168.645 325.671 162.021 312.069C160.526 308.994 159.699 305.638 159.592 302.221C159.486 298.804 160.103 295.403 161.404 292.241C162.704 289.079 164.659 286.228 167.139 283.875C169.618 281.522 172.568 279.719 175.794 278.586C178.85 277.506 182.092 277.051 185.328 277.247C188.564 277.443 191.728 278.285 194.632 279.725C197.536 281.165 200.123 283.172 202.237 285.629C204.352 288.086 205.953 290.942 206.944 294.028C212.079 310.125 211.831 327.368 211.486 334.033C211.443 334.836 211.138 335.602 210.618 336.216C210.098 336.829 209.391 337.254 208.606 337.427L178.735 343.95C178.477 344.007 178.213 344.035 177.949 344.035Z" fill="#FF6584"/>
<path d="M206.876 534.086H216.866L221.619 495.552L206.874 495.553L206.876 534.086Z" fill="#FFB8B8"/>
<path d="M236.133 543.362L204.735 543.363L204.734 531.232L224.002 531.232C225.595 531.231 227.172 531.545 228.644 532.155C230.116 532.764 231.453 533.658 232.58 534.784C233.706 535.911 234.6 537.248 235.21 538.72C235.819 540.191 236.133 541.769 236.133 543.362Z" fill="#2F2E41"/>
<path d="M106.976 521.139L115.731 525.952L138.462 494.476L125.541 487.372L106.976 521.139Z" fill="#FFB8B8"/>
<path d="M128.146 543.363L100.631 528.237L106.475 517.606L123.359 526.889C126.179 528.439 128.267 531.045 129.165 534.135C130.062 537.224 129.696 540.544 128.146 543.363V543.363V543.363Z" fill="#2F2E41"/>
<path d="M206.409 512.698C205.518 512.697 204.659 512.373 203.99 511.785C203.322 511.197 202.89 510.386 202.776 509.503L190.281 413.227C190.226 412.802 190.038 412.404 189.743 412.092C189.449 411.779 189.063 411.568 188.641 411.488C188.219 411.408 187.783 411.463 187.394 411.646C187.005 411.829 186.684 412.13 186.477 412.506L134.406 506.974C133.977 507.745 133.284 508.337 132.456 508.641C131.627 508.945 130.716 508.942 129.89 508.632L118.54 504.308C118.083 504.134 117.666 503.87 117.313 503.533C116.959 503.196 116.677 502.791 116.482 502.343C116.287 501.895 116.184 501.413 116.178 500.924C116.173 500.436 116.265 499.951 116.449 499.499L152.519 410.892C152.611 410.667 152.673 410.431 152.704 410.19C157.589 372.377 170.02 353.148 173.713 348.155C173.983 347.789 174.16 347.362 174.231 346.912C174.301 346.462 174.262 346.002 174.117 345.57L173.61 344.047C173.407 343.442 173.365 342.795 173.489 342.17C173.613 341.544 173.898 340.962 174.315 340.48C187.624 325.322 210.819 333.594 211.052 333.679L211.168 333.722L211.241 333.821C237.251 369.49 227.634 485.342 225.442 508.204C225.361 509.063 224.977 509.865 224.361 510.469C223.744 511.073 222.934 511.44 222.074 511.504L206.694 512.688C206.598 512.695 206.503 512.698 206.409 512.698Z" fill="#2F2E41"/>
<path d="M251.99 274.678C251.89 275.118 251.825 275.564 251.795 276.014L216.789 296.209L208.281 291.31L199.21 303.185L213.43 313.32C214.579 314.139 215.962 314.563 217.373 314.528C218.783 314.494 220.144 314.003 221.252 313.129L257.349 284.653C258.978 285.256 260.752 285.349 262.435 284.919C264.118 284.489 265.63 283.557 266.771 282.247C267.911 280.937 268.626 279.31 268.819 277.584C269.013 275.858 268.676 274.114 267.854 272.583C267.032 271.053 265.764 269.809 264.217 269.018C262.671 268.226 260.921 267.924 259.199 268.151C257.476 268.378 255.864 269.125 254.577 270.291C253.289 271.456 252.387 272.987 251.99 274.678V274.678Z" fill="#FFB8B8"/>
<path d="M215.619 297.165L204.305 311.828C203.983 312.245 203.575 312.588 203.109 312.833C202.642 313.078 202.129 313.22 201.603 313.249C201.076 313.278 200.55 313.193 200.06 313C199.569 312.807 199.126 312.511 198.761 312.131L185.953 298.832C183.828 297.173 182.447 294.739 182.114 292.063C181.78 289.388 182.522 286.689 184.175 284.56C185.828 282.43 188.259 281.043 190.933 280.702C193.608 280.362 196.308 281.095 198.442 282.743L214.506 291.725C214.966 291.982 215.365 292.336 215.676 292.761C215.987 293.187 216.203 293.674 216.308 294.19C216.414 294.706 216.407 295.239 216.288 295.753C216.169 296.266 215.941 296.748 215.619 297.165V297.165Z" fill="#FF6584"/>
<path d="M171.768 322.639L153.542 319.349C153.024 319.255 152.532 319.051 152.099 318.75C151.667 318.449 151.304 318.058 151.036 317.604C150.768 317.15 150.601 316.644 150.547 316.12C150.492 315.596 150.551 315.066 150.72 314.567L156.628 297.074C157.122 294.423 158.647 292.077 160.869 290.549C163.09 289.021 165.827 288.436 168.479 288.923C171.131 289.41 173.482 290.929 175.015 293.146C176.549 295.363 177.141 298.099 176.661 300.752L176.085 319.147C176.068 319.674 175.938 320.19 175.704 320.662C175.469 321.134 175.136 321.55 174.726 321.882C174.317 322.213 173.84 322.452 173.33 322.583C172.819 322.714 172.287 322.733 171.768 322.639H171.768Z" fill="#FF6584"/>
<path d="M177.348 246.826C182.493 250.346 189.247 253.965 194.501 250.216C196.145 248.965 197.338 247.215 197.904 245.228C198.47 243.241 198.377 241.125 197.639 239.195C195.123 232.001 188.211 228.834 181.601 226.406C173.009 223.25 163.653 220.739 154.782 223C145.912 225.26 138.072 233.848 139.673 242.86C140.961 250.108 147.798 256.139 146.827 263.436C145.851 270.779 137.592 274.645 130.3 275.957C123.009 277.27 114.849 277.691 109.609 282.929C102.925 289.61 104.594 301.551 110.884 308.605C117.174 315.659 126.666 318.856 135.864 321.03C148.05 323.91 161.23 325.423 172.805 320.644C184.379 315.864 193.385 302.998 190.033 290.934C188.616 285.838 185.28 281.531 182.056 277.338C178.832 273.145 175.567 268.761 174.337 263.616C173.312 259.33 174.071 254.352 176.913 251.137C177.43 250.574 177.756 249.862 177.843 249.102C177.93 248.343 177.774 247.576 177.398 246.91L177.348 246.826Z" fill="#2F2E41"/>
<path d="M253.633 543.847H88.8672C88.6372 543.847 88.4166 543.755 88.254 543.593C88.0914 543.43 88 543.21 88 542.98C88 542.75 88.0914 542.529 88.254 542.367C88.4166 542.204 88.6372 542.113 88.8672 542.113H253.633C253.863 542.113 254.083 542.204 254.246 542.367C254.408 542.529 254.5 542.75 254.5 542.98C254.5 543.21 254.408 543.43 254.246 543.593C254.083 543.755 253.863 543.847 253.633 543.847Z" fill="#CCCCCC"/>
</svg>
