<svg width="429" height="382" viewBox="0 0 429 382" fill="none" xmlns="http://www.w3.org/2000/svg">
<g clip-path="url(#clip0_6_1906)">
<path d="M49.2052 382L48.8319 381.861C36.1851 377.093 26.2768 367.004 21.7392 354.276C20.5098 350.738 19.7308 347.06 19.4207 343.328L19.3902 342.972L19.7421 343.035C23.942 343.788 28.3511 344.205 30.3155 344.368L19.2944 337.077L19.3143 336.698C19.4859 333.139 21.8065 330.042 25.175 328.877C28.5756 327.622 32.3982 328.561 34.8295 331.249C35.9252 332.438 37.0836 333.635 38.2036 334.792C42.053 338.769 46.0334 342.882 48.5503 347.737C52.3355 355.217 52.541 364.006 49.1094 371.655L49.2053 382H49.2052Z" fill="#F2F2F2"/>
<path d="M272.203 374.935L272.198 374.896C271.711 364.082 269.726 353.389 266.301 343.12L266.298 343.103C266.098 342.049 266.156 340.961 266.467 339.934C267.423 336.989 270.39 335.187 273.445 335.694C276.601 336.287 279.865 335.73 282.645 334.124C284.411 333.1 286.554 332.958 288.439 333.74C290.217 334.465 291.547 335.988 292.025 337.846C292.062 337.992 292.095 338.14 292.123 338.29C292.223 349.155 294.219 359.918 298.022 370.096L298.024 370.11C298.422 372.211 297.787 374.376 296.317 375.931C295.019 377.249 293.198 377.918 291.355 377.754C288.045 377.528 284.642 378.199 280.949 379.806C279.66 380.38 278.209 380.482 276.852 380.094C274.452 379.391 272.653 377.395 272.203 374.935V374.935Z" fill="#6C63FF"/>
<path d="M166.413 226.392V368.394H265.925V226.392C265.928 224.295 264.563 222.442 262.559 221.823C262.099 221.671 261.617 221.596 261.133 221.601H171.219C168.57 221.596 166.418 223.739 166.413 226.387V226.392V226.392ZM205.248 275.184C205.302 269.319 210.102 264.608 215.969 264.662C221.76 264.715 226.441 269.395 226.494 275.184V291.66C226.466 297.526 221.688 302.258 215.821 302.23C209.993 302.202 205.276 297.486 205.248 291.66V275.184V275.184Z" fill="#F2F2F2"/>
<path d="M166.108 363.852V377.546C166.113 379.022 167.305 380.219 168.781 380.232H263.556C265.035 380.224 266.23 379.024 266.229 377.546V363.852H166.108V363.852Z" fill="#E6E6E6"/>
<path d="M9.86768 12.4474V271.723C9.87312 278.603 15.4507 284.178 22.3326 284.184H406.668C413.55 284.178 419.127 278.603 419.133 271.723V12.4474C419.116 5.57428 413.543 0.0087188 406.668 0H22.3326C15.4574 0.00875306 9.88405 5.57429 9.86768 12.4474H9.86768Z" fill="#E6E6E6"/>
<path d="M403.461 8.99973H25.5387C21.8574 9.00774 18.8773 11.9932 18.877 15.6734V268.524C18.8833 272.2 21.8621 275.178 25.5387 275.184H403.461C407.138 275.178 410.117 272.2 410.123 268.524V15.6734C410.123 11.9932 407.143 9.00774 403.461 8.99973V8.99973ZM308.129 188.639C306.999 190.87 304.708 192.274 302.207 192.268L302.168 192.265C298.545 191.761 294.908 191.428 291.258 191.267C291.825 191.673 292.324 192.166 292.736 192.728C293.795 194.245 294.121 196.156 293.623 197.938C292.798 201.15 292.837 204.618 293.744 208.54C294.073 209.913 293.908 211.357 293.279 212.62C292.15 214.851 289.859 216.255 287.357 216.249L287.318 216.246C278.666 215.042 269.906 214.808 261.202 215.551C261.167 215.77 261.124 215.99 261.068 216.21C260.242 219.421 260.281 222.889 261.188 226.812C261.517 228.184 261.353 229.628 260.724 230.891C259.594 233.122 257.303 234.526 254.802 234.52L254.762 234.518C245.877 233.281 236.878 233.069 227.944 233.886C227.876 236.117 228.108 238.346 228.633 240.515C228.962 241.887 228.797 243.332 228.168 244.595C227.039 246.826 224.748 248.23 222.246 248.224L222.207 248.221C211.483 246.727 200.603 246.727 189.879 248.221H189.862C188.788 248.225 187.729 247.97 186.776 247.477C184.054 245.999 182.823 242.754 183.879 239.844C184.203 238.928 184.443 237.984 184.598 237.025C174.77 235.892 164.838 236.009 155.039 237.373H155.022C153.948 237.377 152.889 237.121 151.936 236.628C149.214 235.151 147.983 231.906 149.039 228.995C150.197 226.001 150.245 222.692 149.172 219.666C148.667 218.247 148.667 216.697 149.172 215.278C141.785 214.902 134.379 215.226 127.053 216.246H127.035C125.962 216.25 124.903 215.995 123.949 215.502C121.228 214.024 119.996 210.78 121.052 207.869C122.211 204.875 122.259 201.566 121.186 198.54C120.501 196.617 120.753 194.485 121.866 192.775C122.903 191.16 124.643 190.13 126.559 190C126.709 189.99 126.86 189.984 127.013 189.984C130.767 190.64 134.556 191.068 138.361 191.266C135.934 189.671 134.917 186.62 135.902 183.888C137.061 180.894 137.108 177.585 136.036 174.559C135.351 172.636 135.602 170.504 136.716 168.794C136.764 168.72 136.82 168.655 136.871 168.584C134.163 168.771 131.461 169.051 128.766 169.426H128.749C127.675 169.43 126.616 169.175 125.663 168.682C122.941 167.204 121.71 163.96 122.766 161.049C123.925 158.055 123.972 154.746 122.9 151.72C122.215 149.797 122.466 147.665 123.58 145.955C124.616 144.34 126.357 143.31 128.272 143.18C128.423 143.17 128.574 143.164 128.727 143.164C133.24 143.954 137.805 144.414 142.385 144.539C141.216 142.855 140.929 140.713 141.614 138.781C142.772 135.787 142.82 132.477 141.748 129.452C141.063 127.529 141.314 125.397 142.427 123.687C143.464 122.072 145.205 121.042 147.12 120.912C147.27 120.902 147.422 120.896 147.574 120.896C151.394 121.564 155.251 121.996 159.123 122.189C158.291 120.614 158.155 118.763 158.748 117.084C159.907 114.09 159.954 110.78 158.882 107.755C158.197 105.832 158.448 103.7 159.562 101.99C160.599 100.375 162.339 99.3453 164.254 99.2145C164.405 99.2044 164.556 99.1991 164.709 99.1991C169.203 99.9856 173.748 100.444 178.309 100.572C177.688 99.1052 177.637 97.4597 178.167 95.9578C179.326 92.964 179.373 89.6542 178.301 86.6284C177.616 84.706 177.867 82.5742 178.981 80.8638C180.018 79.2485 181.758 78.2191 183.673 78.0883C183.824 78.0783 183.975 78.073 184.128 78.073C194.832 79.9564 205.782 79.9578 216.486 78.0772H216.499C217.325 78.2473 218.178 78.2473 219.004 78.0772H219.017C229.721 79.9578 240.671 79.9564 251.375 78.073C251.528 78.073 251.679 78.0783 251.83 78.0883C253.745 78.2191 255.485 79.2485 256.522 80.8638C257.636 82.5742 257.887 84.706 257.202 86.6284C256.13 89.6542 256.177 92.964 257.336 95.9578C257.865 97.4597 257.815 99.1052 257.194 100.572C261.755 100.444 266.3 99.9856 270.794 99.1991C270.947 99.1991 271.098 99.2044 271.249 99.2145C273.164 99.3452 274.904 100.375 275.941 101.99C277.055 103.7 277.306 105.832 276.621 107.755C275.549 110.78 275.596 114.09 276.755 117.084C277.348 118.763 277.212 120.614 276.38 122.189C280.252 121.996 284.109 121.564 287.929 120.896C288.081 120.896 288.232 120.902 288.383 120.912C290.298 121.042 292.039 122.072 293.076 123.687C294.189 125.397 294.44 127.529 293.755 129.452C292.683 132.477 292.731 135.787 293.889 138.781C294.575 140.717 294.285 142.866 293.11 144.551C293.62 144.936 294.071 145.393 294.449 145.908C295.509 147.425 295.834 149.336 295.337 151.118C294.511 154.33 294.55 157.798 295.457 161.72C295.786 163.093 295.622 164.537 294.993 165.8C294.762 166.25 294.482 166.672 294.157 167.059C296.831 166.824 299.498 166.473 302.158 166.007H302.172C304.311 166 306.325 167.019 307.586 168.747C308.645 170.264 308.97 172.175 308.473 173.957C307.648 177.169 307.687 180.637 308.594 184.559C308.923 185.932 308.758 187.376 308.129 188.639L308.129 188.639Z" fill="white"/>
<path d="M391.203 43.8311H37.5827C36.806 43.814 36.1903 43.1707 36.2074 42.3943C36.224 41.6419 36.8301 41.036 37.5827 41.0194H391.203C391.98 41.0365 392.596 41.6798 392.579 42.4562C392.562 43.2085 391.956 43.8145 391.203 43.8311Z" fill="#E6E6E6"/>
<path d="M218.665 241.489L218.626 241.486C207.902 239.992 197.022 239.992 186.298 241.486H186.281C185.207 241.49 184.148 241.234 183.194 240.741C180.473 239.264 179.241 236.019 180.297 233.108C181.456 230.115 181.504 226.805 180.431 223.779C179.746 221.857 179.998 219.725 181.111 218.014C182.148 216.399 183.888 215.37 185.804 215.239C185.954 215.229 186.105 215.224 186.258 215.224C196.962 217.107 207.912 217.108 218.616 215.228H218.63C220.769 215.22 222.783 216.239 224.044 217.967C225.103 219.484 225.429 221.396 224.931 223.178C224.106 226.389 224.145 229.857 225.052 233.78C225.381 235.152 225.216 236.596 224.587 237.859C223.458 240.09 221.167 241.494 218.665 241.489V241.489Z" fill="#6C63FF"/>
<path d="M251.645 185.506L243.018 178.369C236.548 181.759 226.703 195.293 226.703 195.293L203.992 211.623C201.265 211.752 199.159 214.068 199.289 216.795C199.419 219.521 201.735 221.626 204.463 221.497C206.233 221.412 207.822 220.387 208.629 218.81L239.487 202.509L251.645 185.506V185.506Z" fill="#FFB8B8"/>
<path d="M266.201 158.341C271.18 162.557 271.798 170.01 267.581 174.988C267.109 175.546 266.585 176.059 266.018 176.52L260.532 180.979C260.532 180.979 246.846 200.674 239.723 202.959L221.435 212.51L213.189 204.244L229.763 190.741C229.763 190.741 237.387 183.533 238.15 178.257C238.617 175.025 244.088 166.223 249.572 159.694C253.78 154.73 261.217 154.118 266.182 158.325L266.201 158.341V158.341Z" fill="#3F3D56"/>
<path d="M248.47 372.089L240.676 372.088L236.968 342.032L248.472 342.033L248.47 372.089Z" fill="#FFB6B6"/>
<path d="M248.745 380.218L224.776 380.217V379.914C224.776 374.763 228.953 370.587 234.105 370.587H234.106L238.484 367.267L246.653 370.588L248.745 370.588L248.745 380.218V380.218Z" fill="#2F2E41"/>
<path d="M307.86 331.076L304.169 337.938L275.933 326.971L281.381 316.842L307.86 331.076Z" fill="#FFB6B6"/>
<path d="M315.152 334.683L303.801 355.788L303.534 355.644C298.996 353.205 297.295 347.55 299.735 343.013L299.735 343.013L298.883 337.585L305.677 331.965L306.668 330.123L315.152 334.683V334.683Z" fill="#2F2E41"/>
<path d="M233.734 234.449L226.854 289.468L230.294 307.913L292.209 335.03L295.649 323.854C279.823 314.173 262.905 299.521 252.245 298.444C252.245 298.444 251.36 288.68 258.997 282.655C260.538 281.439 260.201 279.794 260.824 278.303C261.253 277.278 262.957 276.21 263.394 275.158C263.959 273.795 263.259 272.441 263.828 271.056C264.148 270.277 265.36 270.228 265.678 269.448C266.221 268.119 265.865 266.06 266.394 264.747C267.523 261.94 268.608 259.195 269.599 256.622C272.684 248.612 274.855 242.267 274.581 240.896C273.721 236.598 233.734 234.449 233.734 234.449V234.449Z" fill="#2F2E41"/>
<path d="M232.549 289.309L228.95 312.543L238.033 359.961H250.072C254.398 344.028 254.621 323.088 250.502 305.372L232.549 289.309V289.309Z" fill="#2F2E41"/>
<path d="M240.284 167.226L245.834 157.559L251.792 152.78L262.971 151.06L266.077 153.448C277.255 170.526 281.423 191.251 277.716 211.321L276.844 216.045L276.29 219.044L276.53 222.628L274.664 227.847L274.921 231.668L275.058 233.708L275.196 235.757L275.388 238.616C275.731 240.247 274 240.032 274.245 241.47C274.675 243.996 276.603 247.739 273.674 247.751L243.403 241.47C235.713 241.502 228.553 232.335 235.978 224.912L240.284 167.226H240.284Z" fill="#3F3D56"/>
<path d="M254.453 148.367C262.571 148.367 269.152 141.788 269.152 133.672C269.152 125.556 262.571 118.977 254.453 118.977C246.335 118.977 239.753 125.556 239.753 133.672C239.753 141.788 246.335 148.367 254.453 148.367Z" fill="#FFB8B8"/>
<path d="M254.702 147.95C256.853 147.983 259.002 147.833 261.128 147.501C263.234 147.073 267.947 143.62 269.26 141.543C270.236 139.999 270.861 137.589 271.212 135.839C272.17 131.155 271.097 126.285 268.259 122.438C267.72 121.642 266.975 121.007 266.104 120.599C266.027 120.569 265.948 120.542 265.868 120.52C264.599 120.186 263.458 119.48 262.593 118.494C262.426 118.295 262.244 118.108 262.049 117.934C261.071 117.109 259.912 116.527 258.666 116.236C256.655 115.698 253.745 116.232 250.017 117.825C248.144 118.625 246.095 118.336 244.519 117.994C244.34 117.959 244.155 118.022 244.034 118.16C243.364 118.789 242.48 119.142 241.56 119.146C240.997 119.171 240.406 119.95 239.691 120.967C239.529 121.198 239.34 121.467 239.204 121.631L239.186 121.316L238.867 121.668C237.228 123.474 237.364 126.266 239.17 127.905C239.656 128.346 240.234 128.672 240.861 128.862C241.428 129.013 242.008 129.105 242.594 129.138C242.948 129.17 243.315 129.203 243.667 129.264C245.961 129.734 247.841 131.374 248.615 133.584C248.94 134.489 249.937 134.96 250.843 134.635C250.985 134.584 251.12 134.515 251.244 134.429C251.987 133.851 252.967 133.673 253.866 133.952C254.249 134.165 254.547 134.503 254.711 134.91C254.909 135.362 255.238 135.746 255.655 136.011C257.083 136.747 257.181 140.007 256.668 142.724C256.174 145.343 255.197 147.238 254.293 147.331C253.596 147.403 253.517 147.453 253.466 147.576L253.421 147.686L253.5 147.789C253.884 147.928 254.294 147.983 254.702 147.95V147.95Z" fill="#2F2E41"/>
<path d="M224.948 139.284L224.908 139.281C214.184 137.787 203.305 137.787 192.581 139.281H192.563C191.49 139.285 190.431 139.03 189.477 138.537C186.756 137.059 185.524 133.814 186.58 130.904C187.739 127.91 187.786 124.6 186.714 121.574C186.029 119.652 186.28 117.52 187.394 115.81C188.431 114.194 190.171 113.165 192.086 113.034C192.237 113.024 192.388 113.019 192.541 113.019C203.245 114.902 214.195 114.904 224.899 113.023H224.912C227.052 113.016 229.066 114.034 230.327 115.763C231.386 117.28 231.711 119.191 231.214 120.973C230.388 124.185 230.427 127.653 231.334 131.575C231.663 132.947 231.499 134.392 230.87 135.655C229.74 137.886 227.449 139.29 224.948 139.284V139.284Z" fill="#6C63FF"/>
<path d="M238.694 173.894L244.776 164.494C240.652 158.467 226.056 150.274 226.056 150.274L207.18 129.634C206.732 126.941 204.186 125.121 201.492 125.569C198.798 126.016 196.978 128.562 197.426 131.255C197.716 133.002 198.92 134.461 200.581 135.077L220.382 163.81L238.694 173.894H238.694Z" fill="#FFB8B8"/>
<path d="M267.382 185.171C263.775 190.608 256.443 192.092 251.005 188.487C250.396 188.083 249.825 187.623 249.301 187.114L244.23 182.188C244.23 182.188 222.975 171.093 219.872 164.287L205.945 144.539L215.283 136.117L231.515 150.868C231.515 150.868 238.988 159.507 244.319 159.648C247.584 159.735 256.968 164.138 264.095 168.819C269.517 172.418 270.995 179.729 267.396 185.15L267.382 185.171V185.171Z" fill="#3F3D56"/>
<path d="M125.788 380.132L125.749 380.129C115.025 378.636 104.145 378.636 93.4209 380.129H93.4036C92.3299 380.133 91.2712 379.878 90.3175 379.385C87.5961 377.907 86.3645 374.663 87.4205 371.752C88.5792 368.758 88.6267 365.449 87.5544 362.423C86.8694 360.5 87.1208 358.368 88.2343 356.658C89.271 355.043 91.0114 354.013 92.9267 353.883C93.0773 353.873 93.2285 353.867 93.3813 353.867C104.085 355.751 115.035 355.752 125.739 353.871H125.753C127.892 353.864 129.906 354.883 131.167 356.611C132.226 358.128 132.552 360.039 132.054 361.821C131.229 365.033 131.268 368.501 132.175 372.423C132.504 373.796 132.339 375.24 131.71 376.503C130.581 378.734 128.29 380.138 125.788 380.132H125.788Z" fill="#6C63FF"/>
<path d="M134.927 356.151L134.887 356.148C124.163 354.655 113.284 354.655 102.56 356.148H102.542C101.469 356.153 100.41 355.897 99.4562 355.404C96.7347 353.927 95.5032 350.682 96.5592 347.771C97.7179 344.777 97.7654 341.468 96.693 338.442C96.008 336.519 96.2595 334.388 97.3729 332.677C98.4097 331.062 100.15 330.032 102.065 329.902C102.216 329.892 102.367 329.886 102.52 329.886C113.224 331.77 124.174 331.771 134.878 329.891H134.891C137.031 329.883 139.045 330.902 140.306 332.63C141.365 334.147 141.69 336.058 141.193 337.84C140.367 341.052 140.406 344.52 141.313 348.443C141.642 349.815 141.478 351.259 140.849 352.522C139.719 354.753 137.428 356.157 134.927 356.151H134.927Z" fill="#6C63FF"/>
<path d="M54.959 362.689L54.9835 362.657C62.2301 354.615 68.3262 345.606 73.0975 335.889L73.1072 335.875C73.7054 334.984 74.5103 334.25 75.4532 333.737C78.2022 332.311 81.5808 333.109 83.4005 335.615C85.2316 338.252 87.9472 340.145 91.0551 340.953C93.0316 341.463 94.657 342.866 95.4503 344.746C96.2076 346.51 96.0853 348.527 95.1205 350.187C95.0444 350.317 94.9641 350.445 94.8785 350.572C87.3206 358.379 81.1837 367.445 76.7442 377.362L76.7367 377.374C75.544 379.149 73.5717 380.246 71.4333 380.322C69.5827 380.349 67.8169 379.547 66.6191 378.137C64.4206 375.654 61.5254 373.743 57.7675 372.296C56.4462 371.8 55.3418 370.854 54.6478 369.625C53.4322 367.44 53.5526 364.756 54.959 362.689V362.689Z" fill="#6C63FF"/>
<path d="M428.323 381.003L0.676511 381.178C0.30093 381.177 -0.00195524 380.871 9.50483e-06 380.495C0.00195141 380.122 0.3037 379.821 0.676511 379.819L428.323 379.643C428.699 379.645 429.002 379.951 429 380.327C428.998 380.699 428.696 381.001 428.323 381.003Z" fill="#CACACA"/>
<path d="M91.5272 30.7802C94.1948 30.7802 96.3572 28.5702 96.3572 25.8441C96.3572 23.1179 94.1948 20.908 91.5272 20.908C88.8597 20.908 86.6973 23.1179 86.6973 25.8441C86.6973 28.5702 88.8597 30.7802 91.5272 30.7802Z" fill="#3F3D56"/>
<path d="M108.213 30.7802C110.88 30.7802 113.043 28.5702 113.043 25.8441C113.043 23.1179 110.88 20.908 108.213 20.908C105.545 20.908 103.383 23.1179 103.383 25.8441C103.383 28.5702 105.545 30.7802 108.213 30.7802Z" fill="#3F3D56"/>
<path d="M124.898 30.7802C127.565 30.7802 129.728 28.5702 129.728 25.8441C129.728 23.1179 127.565 20.908 124.898 20.908C122.23 20.908 120.068 23.1179 120.068 25.8441C120.068 28.5702 122.23 30.7802 124.898 30.7802Z" fill="#3F3D56"/>
<path d="M143.924 29.7455C143.776 29.7455 143.628 29.688 143.516 29.5737L140.257 26.2432C140.039 26.0213 140.039 25.6667 140.257 25.4447L143.516 22.1145C143.737 21.8892 144.099 21.8856 144.323 22.1056C144.549 22.3261 144.553 22.6877 144.332 22.913L141.464 25.844L144.332 28.7752C144.553 29.0005 144.549 29.3621 144.323 29.5826C144.212 29.6914 144.068 29.7455 143.924 29.7455V29.7455Z" fill="#3F3D56"/>
<path d="M149.4 29.7455C149.256 29.7455 149.112 29.6914 149.001 29.5826C148.775 29.3621 148.771 29.0008 148.992 28.7752L151.86 25.844L148.992 22.913C148.771 22.6877 148.775 22.3261 149.001 22.1056C149.226 21.8848 149.588 21.889 149.809 22.1145L153.067 25.4447C153.285 25.6667 153.285 26.0213 153.067 26.2432L149.809 29.5737C149.697 29.688 149.549 29.7455 149.4 29.7455V29.7455Z" fill="#3F3D56"/>
<path d="M319.893 21.4794H313.833C313.142 21.4794 312.583 22.039 312.583 22.7299V28.7936C312.583 29.4845 313.142 30.0441 313.833 30.0441H319.893C320.584 30.0441 321.15 29.4845 321.15 28.7936V22.7299C321.15 22.039 320.584 21.4794 319.893 21.4794Z" fill="#3F3D56"/>
<path d="M305.044 21.4794H298.984C298.293 21.4794 297.733 22.039 297.733 22.7299V28.7936C297.733 29.4845 298.293 30.0441 298.984 30.0441H305.044C305.735 30.0441 306.3 29.4845 306.3 28.7936V22.7299C306.3 22.039 305.735 21.4794 305.044 21.4794Z" fill="#3F3D56"/>
<path d="M333.886 21.765H327.826C327.135 21.765 326.576 22.3245 326.576 23.0154V29.0792C326.576 29.77 327.135 30.3296 327.826 30.3296H333.886C334.577 30.3296 335.143 29.77 335.143 29.0792V23.0154C335.143 22.3245 334.577 21.765 333.886 21.765Z" fill="#3F3D56"/>
<path d="M242.548 24.0717H194.108C193.263 24.0717 192.583 24.7568 192.583 25.5962C192.583 26.4355 193.263 27.1207 194.108 27.1207H242.548C243.387 27.1207 244.072 26.4355 244.072 25.5962C244.072 24.7569 243.387 24.0717 242.548 24.0717V24.0717Z" fill="#3F3D56"/>
</g>
<defs>
<clipPath id="clip0_6_1906">
<rect width="429" height="382" fill="white"/>
</clipPath>
</defs>
</svg>
