<svg width="300" height="300" viewBox="0 0 300 300" fill="none" xmlns="http://www.w3.org/2000/svg">
<g clip-path="url(#clip0_8_15)">
<rect width="300" height="300" rx="120" fill="url(#paint0_linear_8_15)"/>
<path d="M59.2864 140.133C58.0873 140.502 56.8105 140.554 55.5845 140.284C54.3585 140.013 53.2267 139.43 52.303 138.593C51.3792 137.756 50.6963 136.695 50.323 135.515C49.9496 134.336 49.899 133.082 50.1762 131.877C54.336 114.869 70.1536 73.276 127.777 55.782C152.738 48.2042 176.675 48.0748 198.896 55.3946C217.175 61.3915 229.31 70.7758 235.115 75.3116C236.59 76.4583 237.541 78.1339 237.759 79.9697C237.976 81.8054 237.443 83.651 236.277 85.1005C236.262 85.1184 236.247 85.1363 236.233 85.1541C235.035 86.608 233.303 87.541 231.412 87.752C229.52 87.9631 227.62 87.4352 226.12 86.2822C215.604 78.1386 183.689 53.3982 131.964 69.1014C81.4578 84.4346 67.7383 120.3 64.1799 134.973C63.9096 136.186 63.3128 137.304 62.4519 138.212C61.5911 139.119 60.4977 139.783 59.2864 140.133L59.2864 140.133Z" fill="white"/>
<path d="M216.345 236.467C215.773 236.649 215.179 236.758 214.579 236.793C169.561 239.176 140.919 202.421 139.743 200.888L139.525 200.534C138.808 199.44 121.477 173.526 129.106 152.946C132.611 143.537 140.361 136.933 152.208 133.336C163.225 129.991 172.241 130.981 179.915 136.366C186.207 140.754 190.24 147.297 194.149 153.616C202.278 166.735 207.259 173.41 222.711 169.559C229.495 167.867 232.663 162.654 234.11 158.593C238.006 147.544 234.553 132.48 225.417 121.083C213.613 106.297 180.581 81.7382 139.825 94.1113C122.421 99.3951 108.177 109.807 98.639 124.145C90.737 136.043 86.1433 150.821 86.0426 164.602C85.884 190.263 107.282 224.021 107.485 224.327C107.978 225.102 108.311 225.964 108.464 226.865C108.618 227.765 108.59 228.687 108.381 229.577C108.172 230.467 107.787 231.308 107.247 232.052C106.708 232.796 106.024 233.428 105.236 233.912C105.214 233.926 105.192 233.939 105.17 233.952C103.556 234.942 101.61 235.268 99.7529 234.859C97.896 234.451 96.2769 233.341 95.2456 231.769C94.2797 230.225 71.4307 194.231 71.6148 164.574C71.871 132.428 91.7475 94.0642 135.623 80.7439C155.904 74.5869 177.217 75.6218 197.273 83.7034C212.818 90.0056 227.206 100.438 236.717 112.351C248.867 127.557 253.147 147.461 247.616 162.995C243.929 173.352 236.296 180.498 226.151 183.053C199.711 189.663 189.354 173.021 181.8 160.881C174.043 148.436 169.752 142.6 156.346 146.67C148.984 148.905 144.449 152.486 142.542 157.632C139.946 164.665 142.406 173.68 144.927 180C144.953 180.066 144.979 180.132 145.005 180.198C148.237 188.231 153.279 195.44 159.755 201.281C170.127 210.694 189.383 224.115 213.925 222.821C215.801 222.706 217.647 223.329 219.056 224.552C220.465 225.775 221.322 227.498 221.439 229.341C221.44 229.364 221.442 229.386 221.443 229.408C221.501 230.972 221.032 232.51 220.111 233.786C219.19 235.062 217.866 236.004 216.345 236.467L216.345 236.467Z" fill="white"/>
<path d="M161.755 249.681C160.817 249.966 159.829 250.062 158.852 249.961C157.875 249.861 156.929 249.567 156.071 249.097C133.868 236.734 118.281 220.105 107.057 196.798L107.011 196.655C99.9375 181.115 95.6791 157.373 105.072 137.307C112.007 122.501 125.024 112.093 143.695 106.425C165.78 99.7202 186.343 104.656 203.219 120.631C210.895 128.004 217.136 136.692 221.638 146.268C222.355 147.99 222.354 149.922 221.634 151.643C220.914 153.365 219.533 154.739 217.79 155.469C216.047 156.198 214.082 156.223 212.321 155.54C210.559 154.856 209.141 153.518 208.375 151.816C204.564 143.824 199.302 136.582 192.847 130.446C179.838 118.283 164.716 114.686 147.848 119.807C133.272 124.232 123.234 132.056 118.096 143.063C110.686 158.905 114.501 178.688 120.037 190.863C129.934 211.476 143.662 226.098 163.204 236.96C164.011 237.407 164.721 238.007 165.292 238.724C165.864 239.441 166.286 240.261 166.535 241.139C166.784 242.016 166.855 242.933 166.743 243.837C166.631 244.741 166.339 245.615 165.884 246.408C165.866 246.44 165.848 246.471 165.829 246.502C164.919 248.021 163.467 249.154 161.755 249.681V249.681Z" fill="white"/>
<path d="M164.093 180.006C169.166 180.006 173.278 175.965 173.278 170.98C173.278 165.995 169.166 161.954 164.093 161.954C159.021 161.954 154.909 165.995 154.909 170.98C154.909 175.965 159.021 180.006 164.093 180.006Z" fill="white"/>
</g>
<defs>
<linearGradient id="paint0_linear_8_15" x1="283.058" y1="25" x2="-13.0661" y2="114.512" gradientUnits="userSpaceOnUse">
<stop stop-color="#C596E0"/>
<stop offset="1" stop-color="#0366FE"/>
</linearGradient>
<clipPath id="clip0_8_15">
<rect width="300" height="300" fill="white"/>
</clipPath>
</defs>
</svg>
