<svg width="1440" height="498" viewBox="0 0 1440 498" fill="none" xmlns="http://www.w3.org/2000/svg">
<path fill-rule="evenodd" clip-rule="evenodd" d="M1054.66 909.82C912.21 958.072 758.665 969.536 593.368 958.747C568.774 957.142 544.002 955.735 519.169 954.324C346.598 944.522 171.078 934.553 31.5753 856.712H-189.923V690.52C-299.481 586.583 -373.096 468.323 -352.561 351.691C-321.191 173.515 -79.4156 68.2956 151.966 12.0575C274.003 -17.6039 401.521 12.9743 532.458 44.3725C601.146 60.8438 670.776 77.5407 741.049 85.8851C821.453 95.4324 906.565 91.9901 990.495 88.5955C1152.14 82.0578 1309.4 75.6974 1420.2 162.65C1591.31 296.925 1549.85 504.458 1473.44 660.636C1461.21 685.642 1444.6 708.076 1424.52 728.418V856.712H1204.42C1157.9 874.861 1109.29 891.321 1061.36 907.549C1059.13 908.306 1056.89 909.063 1054.66 909.82Z" fill="#27C2F6"/>
</svg>
